<svg width="609" height="508" viewBox="0 0 609 508" fill="none" xmlns="http://www.w3.org/2000/svg">
<path d="M141.24 396.751C125.082 433.286 108.924 469.906 92.7657 506.44C137.243 478.848 181.72 451.255 226.196 423.662C268.122 429.879 332.839 434.648 409.292 419.83C482.088 405.693 537.62 394.963 575.038 345.824C629.635 274.202 600.636 180.012 598.765 174.307C568.66 81.4794 476.9 44.5189 429.617 25.9535C308.517 -21.5672 196.177 10.7946 154.676 25.187C70.3996 54.3977 -24.167 170.559 7.12842 274.628C32.0457 357.661 125.762 391.386 141.41 396.666L141.24 396.751Z" fill="#364B98" stroke="#374595" stroke-miterlimit="10"/>
</svg>
