<svg width="461" height="239" viewBox="0 0 461 239" fill="none" xmlns="http://www.w3.org/2000/svg">
<path d="M111.897 174.061C115.732 184.121 119.567 194.221 123.436 204.281C112.856 196.686 102.31 189.092 91.7299 181.457C81.766 183.167 66.3921 184.479 48.2448 180.423C30.9534 176.526 17.7367 173.584 8.86846 160.025C-4.1086 140.302 2.77369 114.337 3.21881 112.746C10.375 87.1782 32.1861 76.9591 43.4169 71.8694C72.1787 58.7872 98.8861 67.6942 108.747 71.6705C128.778 79.7425 151.239 111.712 143.809 140.381C137.886 163.285 115.63 172.55 111.897 174.021V174.061Z" fill="#FC4D5C" stroke="#374595" stroke-miterlimit="10"/>
<path d="M272.464 185.78C265.959 202.839 259.453 219.937 252.947 236.996C270.855 224.112 288.763 211.229 306.67 198.346C323.551 201.248 349.608 203.475 380.39 196.556C409.699 189.956 432.058 184.945 447.124 162.002C469.106 128.561 457.43 84.5828 456.677 81.9187C444.556 38.5767 407.611 21.3194 388.573 12.651C339.815 -9.53687 294.584 5.57318 277.874 12.2932C243.942 25.932 205.867 80.1691 218.467 128.76C228.5 167.529 266.233 183.275 272.533 185.741L272.464 185.78Z" fill="#FC4D5C" stroke="#374595" stroke-miterlimit="10"/>
</svg>
