<svg width="373" height="295" viewBox="0 0 373 295" fill="none" xmlns="http://www.w3.org/2000/svg">
<path d="M62.7902 106.81L65.7679 222.866" stroke="#374595" stroke-width="3" stroke-miterlimit="10"/>
<path d="M64.5598 220.625C65.2899 219.996 66.187 220.272 66.593 220.645C67.482 221.363 67.3145 223.01 67.3065 223.452C67.0002 229.373 70.7288 232.003 68.9368 234.706C67.9305 236.232 65.5151 237.061 64.1456 236.701C61.9082 236.143 62.4425 231.983 63.4817 223.585C63.604 222.747 63.7529 221.284 64.4537 220.578L64.5598 220.625Z" fill="#374595"/>
<path d="M63.7655 232.449L64.7869 235.139C64.7869 235.139 63.0909 235.079 63.7655 232.449Z" fill="#E4D1E4"/>
<ellipse cx="158.654" cy="272.603" rx="103.839" ry="22.1626" fill="#B5A0B7" fill-opacity="0.2"/>
<path d="M180.815 179.715L178.514 267.762" stroke="#384795" stroke-width="6" stroke-miterlimit="10"/>
<path d="M142.62 179.715L140.316 267.762" stroke="#384795" stroke-width="6" stroke-miterlimit="10"/>
<path d="M258.839 124.323C258.413 124.113 258.012 123.876 257.459 123.959C257.301 121.356 256.24 118.571 257.459 115.962C258.832 118.297 261.689 123.492 258.839 124.323Z" fill="#F7C7D9" stroke="#8D89A2" stroke-width="0.25" stroke-miterlimit="10"/>
<path d="M159.364 153.735C159.402 153.793 160.206 154.741 160.285 154.827C159.495 157.732 159.361 161.282 160.745 163.912C159.914 165.522 160.285 168.187 160.285 170.089C160.285 172.245 160.11 174.487 160.285 176.63C160.525 179.559 160.34 180.96 161.665 183.899C159.669 184.02 157.673 184.141 155.677 184.263C155.886 183.789 156.497 181.883 156.597 181.354C156.858 179.981 156.35 154.93 156.137 153.55C156.109 153.381 154.66 152.489 154.293 152.097L154.753 151.187C159.907 148.241 158.358 152.262 159.358 153.732L159.364 153.735Z" fill="#F7C7D9" stroke="#8D89A2" stroke-width="0.25" stroke-miterlimit="10"/>
<path d="M159.822 131.591C160.21 133.696 161.982 134.327 162.586 134.863C162.933 135.169 163.994 136.243 163.966 136.679C163.187 136.762 163.132 136.875 162.586 137.043C158.212 138.393 159.798 143.66 159.822 146.492C159.836 148.288 160.025 150.633 159.822 152.309C159.74 152.992 159.321 153.178 159.362 153.761C158.363 152.292 159.911 148.271 154.758 151.217C154.788 151.1 154.716 150.963 154.758 150.853C154.97 150.259 156.11 149.772 156.138 149.583C157.044 143.742 155.877 140.861 152.454 135.955C153.024 135.793 154.837 134.334 155.218 133.775C156 132.621 155.901 132.992 156.138 131.594H159.822V131.591Z" fill="#F7C7D9" stroke="#8D89A2" stroke-width="0.25" stroke-miterlimit="10"/>
<path d="M214.629 165.391C219.933 169.611 227.446 173.031 234.893 171.026C234.279 170.507 233.221 170.638 232.59 170.48C232.837 169.01 235.045 169.384 236.274 169.388C236.425 169.388 236.583 169.381 236.734 169.388L237.654 173.748V175.201H237.194C235.103 176.375 230.138 178.779 227.752 178.473C209.715 170.03 215.799 169.855 222.224 181.017C224.602 181.319 226.981 181.623 229.362 181.927C228.222 182.387 227.213 183.019 226.138 183.561C225.396 181.319 217.145 182.291 213.705 182.109C213.966 181.646 215.041 179.077 214.395 178.837C211.854 183.623 193.746 188.609 187.916 186.834C193.595 185.33 200.592 182.734 204.036 178.655C208.184 173.742 206.522 171.778 205.88 168.66C208.273 172.049 212.294 174.5 215.092 177.563C215.538 178.051 216.562 180.904 216.012 177.563C215.418 173.927 209.18 170.174 205.88 167.932C205.873 167.887 204.918 167.616 204.96 167.386C205.355 165.175 209.2 167.867 214.632 165.388L214.629 165.391Z" fill="#F7C7D9" stroke="#8D89A2" stroke-width="0.25" stroke-miterlimit="10"/>
<path d="M256.535 137.043C256.037 139.051 255.309 140.888 254.691 142.859C254.547 143.323 253.277 144.6 253.311 145.403C251.728 145.73 252.71 147.127 252.391 147.948C252.301 148.178 252.71 149.483 251.471 152.672C251.309 153.084 249.956 155.454 249.627 155.945C249.201 156.583 245.949 160.02 245.022 161.033C244.301 161.823 243.457 162.849 242.718 163.577C240.892 165.38 237.499 167.313 236.27 169.394C235.041 169.387 232.833 169.016 232.586 170.486C230.684 170.008 228.933 169.744 227.058 169.033C228.548 167.886 229.829 167.763 232.122 166.489C238.972 162.681 242.289 157.534 245.019 151.405C241.863 153.414 238.179 154.945 235.116 157.04C220.582 166.98 237.173 159.691 231.662 144.864C231.219 143.673 229.822 142.416 228.898 141.41C222.581 134.55 220.981 140.93 208.634 145.771L207.713 145.043C212.973 143.137 216.277 140.552 220.146 137.41C221.787 136.078 221.914 136.39 221.99 136.318C220.874 138.076 223.679 135.329 229.358 137.771C236.576 140.875 236.493 148.933 235.116 154.489C239.031 152.973 242.945 151.459 246.859 149.946C244.941 154.368 243.022 158.791 241.101 163.213C243.309 160.367 259.783 139.391 246.629 144.315C241.132 146.372 239.045 150.598 241.335 145.767C246.042 135.844 235.086 131.927 224.294 134.502C224.812 133.839 226.052 129.918 226.368 129.777C252.404 132.545 244.463 142.214 246.173 143.223C249.627 141.163 253.081 139.104 256.535 137.046V137.043Z" fill="#F7C7D9" stroke="#8D89A2" stroke-width="0.25" stroke-miterlimit="10"/>
<path d="M205.876 168.299C205.901 168.416 205.852 168.543 205.876 168.663C206.519 171.781 208.184 173.741 204.033 178.658C200.592 182.734 193.595 185.333 187.912 186.837C185.955 187.355 183.922 187.702 181.924 188.107C184.393 188.252 185.189 190.216 187.682 191.198C190.288 190.295 194.58 191.706 196.431 191.562C196.984 191.517 203.902 189.076 204.719 188.653C207.274 187.338 209.32 184.54 211.858 183.929C210.409 185.663 208.709 187.071 206.793 188.471C207.24 189.203 220.861 186.236 226.134 183.565C227.209 183.022 228.219 182.391 229.359 181.93C226.98 181.628 224.601 181.325 222.22 181.021C215.796 169.858 209.712 170.033 227.748 178.476C230.135 178.782 235.099 176.378 237.191 175.204C236.432 176.976 235.302 178.758 233.966 180.293C232.469 182.016 229.609 184.44 227.518 185.745C225.269 187.149 222.739 188.073 220.15 189.017C219.501 189.254 219.721 189.371 219.69 189.381C218.584 189.762 217.159 190.15 216.005 190.473C213.049 191.297 209.835 191.72 206.793 192.29C202.663 193.066 197.602 194.13 193.437 194.47C190.542 193.186 185.206 193.436 185.378 191.562C178.734 191.668 169.941 189.532 166.727 184.657C168.852 183.568 172.066 184.245 175.016 184.293C173.759 188.447 181.43 187.033 185.608 186.109C191.112 184.897 195.353 183.04 199.425 179.932C201.296 178.504 204.225 176.293 204.953 174.298C206.395 170.346 204.084 167.849 205.873 168.299H205.876Z" fill="#F7C7D9" stroke="#8D89A2" stroke-width="0.25" stroke-miterlimit="10"/>
<path d="M258.379 88.7055C258.389 88.7432 259.196 88.575 259.299 88.8875C259.835 90.4978 258.015 91.6171 260.219 91.9777C260.075 96.067 259.464 97.643 258.376 101.427C254.554 93.0695 249.644 92.2523 244.099 85.7973C244.133 85.0968 243.869 82.4427 244.329 82.1611C247.33 84.5818 255.062 89.6394 258.376 88.702L258.379 88.7055Z" fill="#F7C7D9" stroke="#8D89A2" stroke-width="0.25" stroke-miterlimit="10"/>
<path d="M258.379 101.424C257.922 103.01 257.188 104.606 256.535 106.148C256.518 106.186 256.46 105.925 256.075 106.876C254.262 107.659 254.736 99.8372 254.231 96.5169C245.345 91.9469 243.728 93.7735 244.099 85.7939C249.644 92.249 254.554 93.0628 258.376 101.424H258.379Z" fill="#F7C7D9" stroke="#8D89A2" stroke-width="0.25" stroke-miterlimit="10"/>
<path d="M163.966 179.928C169.563 181.823 181.258 180.182 186.532 177.748C188.568 178.434 182.329 180.906 180.774 181.384C169.642 184.793 164.639 181.487 166.727 184.656C169.941 189.532 178.734 191.667 185.378 191.561C185.21 193.436 190.546 193.185 193.437 194.469C189.615 194.781 185.763 195.042 181.924 194.833C178.298 194.637 174.707 194.078 171.331 193.017C171.263 192.996 171.761 192.062 170.181 192.289C169.779 194.036 162.703 186.235 161.663 183.928C160.334 180.989 160.523 179.588 160.282 176.659C161.663 178.215 161.23 179.004 163.966 179.931V179.928Z" fill="#F7C7D9" stroke="#8D89A2" stroke-width="0.25" stroke-miterlimit="10"/>
<path d="M180.087 15.6535C182.302 16.4809 182.072 15.056 183.311 15.4715C185.433 18.0123 188.496 19.1625 187.915 22.5583C187.421 25.4494 186.209 25.0511 184.691 27.2829C179.779 29.0386 174.867 30.7955 169.954 32.5534C184.018 29.5869 187.225 38.6926 185.382 39.6403C185.165 39.7501 182.741 39.836 182.387 40.0043C181.797 40.2824 181.955 40.3545 181.927 40.3682C180.417 38.957 169.415 47.5443 167.651 49.0894H164.887C164.828 46.6722 165.508 35.6299 161.662 41.8206C159.932 36.5673 162.418 34.6891 162.583 34.1878C162.878 33.2916 162.682 32.0865 163.043 31.4616C167.524 23.7429 181.804 18.7815 166.267 24.0108C166.068 22.2699 165.065 20.4639 164.887 18.7402C164.557 15.5848 166.476 12.8071 164.427 13.8337C164.859 13.0817 165.093 12.6491 165.807 12.0173C171.355 11.0731 175.438 13.9195 180.083 15.6535H180.087Z" fill="#F7C7D9" stroke="#8D89A2" stroke-width="0.25" stroke-miterlimit="10"/>
<path d="M168.574 49.8176C166.624 53.931 168.725 55.5826 168.574 57.9964C168.231 63.5072 162.507 75.9882 170.648 79.2569C174.559 80.8261 183.802 79.6106 194.137 82.8931C194.656 83.0579 195.013 82.5119 195.057 82.5291C204.373 85.7738 213.997 98.296 218.083 100.339C226.814 104.7 236.009 99.4085 242.722 105.609C243.92 106.719 244.284 108.892 245.716 109.788C246.042 109.991 253.829 113.016 252.854 110.88C252.906 112.319 254.413 114.956 251.244 114.877C242.482 114.66 243.831 103.405 231.903 105.428C227.408 106.19 224.394 110.094 217.396 106.88C217.156 106.698 216.225 106.324 216.016 106.152C210.982 102.056 209.063 98.9896 205.423 95.7929C193.509 85.3343 190.267 86.179 173.186 85.7979C170.576 85.7395 169.443 86.1687 168.581 86.1618C170.257 83.494 163.458 85.997 162.593 80.5274C162.363 79.0715 165.769 57.004 164.437 51.27C164.845 51.0331 165.807 50.0408 167.201 49.8176C167.63 49.7489 168.135 49.8554 168.581 49.8176H168.574Z" fill="#F7C7D9" stroke="#8D89A2" stroke-width="0.25" stroke-miterlimit="10"/>
<path d="M210.941 86.1611C205.911 71.2286 192.204 69.3298 186.762 65.807C178.099 60.2034 188.702 58.0883 179.624 51.6333C178.786 51.0392 177.78 50.7062 176.859 50.1809C175.589 49.4495 173.371 49.0444 173.175 48.5465C173.594 47.0666 174.058 46.9945 174.095 46.9121C185.567 48.1654 185.241 55.1011 188.372 59.8154C188.88 60.5811 190.322 60.4506 189.983 62.5417C201.227 67.225 216.229 74.178 210.938 86.1645L210.941 86.1611Z" fill="#F7C7D9" stroke="#8D89A2" stroke-width="0.25" stroke-miterlimit="10"/>
<path d="M190.219 48.3613C193.327 45.3603 190.721 36.4949 188.376 33.2777C184.942 28.5668 182.154 31.0115 184.691 27.2792C186.209 25.0474 187.421 25.4457 187.916 22.5547C190.995 29.9609 198.288 38.4349 194.364 46.7235C193.564 48.4093 190.192 51.8292 190.219 48.3578V48.3613Z" fill="#F7C7D9" stroke="#8D89A2" stroke-width="0.25" stroke-miterlimit="10"/>
<path d="M207.257 46.5447C211.346 35.1899 200.149 28.1477 199.888 27.1005C199.696 26.3313 201.677 24.2025 198.968 19.2857C200.211 14.362 210.409 34.4139 210.941 36.9135C211.562 39.8355 213.083 48.0142 207.257 46.5447Z" fill="#F7C7D9" stroke="#8D89A2" stroke-width="0.25" stroke-miterlimit="10"/>
<path d="M252.851 110.873C252.628 104.786 253.507 110.578 254.925 110.509C255.508 110.482 255.876 108.157 256.075 107.601C257.263 109.915 257.373 112.782 256.535 115.234C255.151 119.282 254.592 114.036 242.028 114.87C241.579 114.619 242.052 113.009 241.338 111.598C236.899 102.852 230.107 108.023 222.227 110.87C220.551 111.048 218.982 108.075 217.393 106.873C224.39 110.087 227.405 106.183 231.899 105.421C243.828 103.398 242.482 114.657 251.241 114.87C254.41 114.949 252.906 112.308 252.851 110.873Z" fill="#F7C7D9" stroke="#8D89A2" stroke-width="0.25" stroke-miterlimit="10"/>
<path d="M184.691 27.2832C182.154 31.0155 184.942 28.5674 188.376 33.2817C190.721 36.4989 193.323 45.3609 190.219 48.3653C190.247 44.3755 194.693 40.6363 182.391 40.0045C182.745 39.8397 185.169 39.7504 185.385 39.6406C187.229 38.6929 184.022 29.5872 169.958 32.5537C174.87 30.7981 179.783 29.0412 184.695 27.2832H184.691Z" fill="#F7C7D9" stroke="#8D89A2" stroke-width="0.25" stroke-miterlimit="10"/>
<path d="M181.927 40.3645C178.672 42.0195 175.452 43.9182 174.099 46.9054C174.061 46.9912 173.594 47.0599 173.179 48.5398C173.374 49.0411 175.593 49.4462 176.863 50.1742C174.271 49.8205 171.17 49.587 168.574 49.8102C168.128 49.8479 167.623 49.7415 167.194 49.8102C167.27 49.611 167.603 49.1269 167.654 49.0823C169.419 47.5372 180.42 38.9499 181.931 40.3611L181.927 40.3645Z" fill="#F7C7D9" stroke="#8D89A2" stroke-width="0.25" stroke-miterlimit="10"/>
<path d="M175.943 12.3813C177.193 12.8482 179.915 14.4723 180.087 15.6534C175.441 13.9195 171.359 11.0765 165.81 12.0173H165.35C168.646 11.2825 172.907 11.2448 175.943 12.3813Z" fill="#F7C7D9" stroke="#8D89A2" stroke-width="0.25" stroke-miterlimit="10"/>
<path d="M184.231 8.02088C185.254 8.37797 189.117 10.3763 189.296 10.5652C191.061 12.4193 189.021 14.9498 189.296 15.8357C189.639 16.9413 200.101 19.204 195.744 27.4651C203.645 31.9013 207.882 38.71 205.876 46.3634C206.082 46.7308 206.876 46.4493 207.257 46.5454C213.083 48.015 211.562 39.8362 210.941 36.9143C210.409 34.4181 200.211 14.3627 198.968 19.2864C197.557 16.7318 194.051 15.4717 192.98 10.2012C198.556 10.4106 200.074 10.7918 204.493 13.4734C207.672 21.1886 213.921 26.5346 215.545 28.739C226.21 43.2148 221.084 48.8013 221.994 49.6356C225.049 52.4374 226.464 46.1025 223.837 38.3701C222.653 34.8782 219.26 30.7785 216.929 27.6471C216.088 26.5175 211.411 21.7173 211.401 21.2882C211.377 19.901 215.549 19.9044 212.321 16.7456C213.702 16.8966 214.955 16.6769 216.696 17.1095C219.755 17.8683 240.675 33.491 241.795 37.8242C243.742 43.0707 246.272 48.1248 246.859 53.6322C250.482 58.9989 251.55 64.6883 251.004 70.7142C256.83 75.6551 256.339 82.5668 258.372 88.706C255.062 89.6434 247.326 84.5858 244.325 82.1651C243.865 82.4433 244.126 85.1008 244.095 85.8013C243.721 93.7809 245.342 91.9542 254.228 96.5243C254.729 99.8445 254.259 107.666 256.072 106.883C255.996 107.069 256.144 107.412 256.072 107.611C255.872 108.164 255.502 110.489 254.921 110.519C253.507 110.588 252.628 104.796 252.847 110.883C253.823 113.019 246.035 109.998 245.709 109.792C244.277 108.892 243.913 106.718 242.715 105.613C236.002 99.4119 226.807 104.706 218.076 100.342C213.99 98.2994 204.362 85.7772 195.05 82.5325C195.002 82.5154 194.649 83.0613 194.13 82.8965C183.799 79.614 174.552 80.8329 170.641 79.2603C162.504 75.9916 168.227 63.5106 168.567 57.9998C168.718 55.586 166.617 53.9378 168.567 49.821C171.163 49.5944 174.267 49.8313 176.856 50.185C177.776 50.7138 178.782 51.0434 179.62 51.6374C181.742 55.0812 182.157 58.2676 179.62 61.6325C188.534 70.1339 181.124 63.4625 175.016 70.3537C187.517 64.0463 203.638 75.9264 209.097 84.1635C211.061 87.1301 209.729 88.9052 210.941 86.1618C216.232 74.1718 201.234 67.2223 189.986 62.5389C190.322 60.4479 188.884 60.5783 188.376 59.8126C185.244 55.0984 185.57 48.166 174.099 46.9094C175.452 43.9222 178.676 42.0234 181.927 40.3684C181.955 40.3547 181.8 40.2826 182.387 40.0045C194.693 40.6363 190.247 44.372 190.216 48.3652C190.192 51.8331 193.56 48.4167 194.36 46.7308C198.285 38.4422 190.995 29.9682 187.912 22.562C188.492 19.1662 185.43 18.016 183.308 15.4751C182.068 15.0597 182.298 16.4812 180.084 15.6571C179.912 14.4794 177.189 12.8519 175.939 12.3849L176.399 11.2931C179.891 12.6322 184.602 12.6905 187.222 15.2897C188.846 13.5627 182.834 10.263 179.623 8.38486C179.915 8.06554 179.363 7.80114 181.004 7.29297C182.219 7.52645 182.978 7.58482 184.228 8.02088H184.231Z" fill="#F7C7D9" stroke="#8D89A2" stroke-width="0.25" stroke-miterlimit="10"/>
<path d="M192.98 10.2022C194.051 15.4761 197.557 16.7328 198.968 19.2874C201.681 24.2042 199.696 26.333 199.888 27.1022C200.149 28.1494 211.35 35.1916 207.257 46.5464C206.872 46.4503 206.082 46.7318 205.876 46.3644C207.882 38.711 203.645 31.8988 195.744 27.4661C200.101 19.2015 189.639 16.9423 189.296 15.8366C189.021 14.9508 191.061 12.4203 189.296 10.5661C190.151 9.02791 192.585 10.1884 192.98 10.2022Z" fill="#F7C7D9" stroke="#8D89A2" stroke-width="0.25" stroke-miterlimit="10"/>
<path d="M253.771 66.5361C253.857 68.0675 252.793 68.9396 252.851 70.3508C252.93 70.9448 255.673 74.0659 256.075 74.8934C256.8 76.3973 257.816 78.145 258.379 79.618C258.973 81.1837 259.467 82.7185 259.759 84.3426C260.23 86.9555 260.312 89.3521 260.219 91.9753C258.015 91.6183 259.835 90.4955 259.299 88.8851C259.196 88.5727 258.389 88.7409 258.379 88.7032C256.346 82.564 256.837 75.6522 251.011 70.7113C251.557 64.6855 250.489 58.9961 246.866 53.6294C246.279 48.1185 243.749 43.0678 241.802 37.8213C248.12 44.2695 248.284 54.9204 248.71 55.8131C250.204 58.9445 253.205 56.1737 253.775 66.5361H253.771Z" fill="#F7C7D9" stroke="#8D89A2" stroke-width="0.25" stroke-miterlimit="10"/>
<path d="M212.325 16.7429C215.552 19.9018 211.377 19.8983 211.404 21.2855C211.411 21.7181 216.088 26.5148 216.932 27.6444C216.472 28.0084 216.012 28.3724 215.552 28.7363C213.928 26.532 207.679 21.1859 204.5 13.4707C205.87 14.3016 207.397 15.9532 208.414 17.1068C209.31 17.33 210.481 16.5403 212.328 16.7429H212.325Z" fill="#F7C7D9" stroke="#8D89A2" stroke-width="0.25" stroke-miterlimit="10"/>
<path d="M204.036 53.4513C203.729 53.6321 203.423 53.8141 203.116 53.9972C210.275 61.8223 220.826 67.8791 224.761 77.4381C225.187 83.2305 223.817 90.0907 217.853 93.7921C230.423 64.2498 197.368 63.6661 201.966 52.3594C204.795 52.9877 208.318 52.8847 211.178 53.4513C214.707 54.1517 224.411 58.3166 220.85 58.5398C215.247 56.8436 209.643 55.1474 204.039 53.4513H204.036Z" fill="#F7C7D9" stroke="#8D89A2" stroke-width="0.25" stroke-miterlimit="10"/>
<path d="M210.941 86.1631C209.729 88.9065 211.065 87.1313 209.097 84.1647C203.641 75.9276 187.521 64.0475 175.016 70.355C181.124 63.4638 188.537 70.1352 179.62 61.6338C182.157 58.2689 181.742 55.0825 179.62 51.6387C188.698 58.0938 178.096 60.2123 186.758 65.8124C192.201 69.3318 205.907 71.234 210.938 86.1665L210.941 86.1631Z" fill="#F7C7D9" stroke="#8D89A2" stroke-width="0.25" stroke-miterlimit="10"/>
<path d="M224.758 77.438C220.823 67.879 210.271 61.8222 203.112 53.9971C203.419 53.8163 203.726 53.6343 204.033 53.4512C213.526 60.6479 223.934 66.2103 224.758 77.438Z" fill="#F7C7D9" stroke="#8D89A2" stroke-width="0.25" stroke-miterlimit="10"/>
<path d="M225.451 61.8125C235.508 65.8813 240.253 76.1682 237.194 84.5289C234.749 91.2141 236.054 80.1511 235.814 78.352C234.986 72.1681 230.605 66.4341 224.761 62.3619C224.992 62.181 225.222 61.9991 225.451 61.8159V61.8125Z" fill="#F7C7D9" stroke="#8D89A2" stroke-width="0.25" stroke-miterlimit="10"/>
<path d="M216.929 27.6475C219.26 30.7754 222.649 34.8785 223.837 38.3705C226.464 46.1028 225.049 52.4378 221.994 49.636C221.084 48.8016 226.21 43.2152 215.545 28.7393C216.005 28.3754 216.465 28.0114 216.926 27.6475H216.929Z" fill="#F7C7D9" stroke="#8D89A2" stroke-width="0.25" stroke-miterlimit="10"/>
<path d="M232.82 92.704C239.821 91.4954 251.289 100.155 251.471 105.971C244.397 98.9771 240.779 92.8619 227.752 96.3401C228.085 95.6122 232.483 92.7623 232.816 92.704H232.82Z" fill="#F7C7D9" stroke="#8D89A2" stroke-width="0.25" stroke-miterlimit="10"/>
<path d="M224.297 25.1035C224.466 25.2512 226.423 26.1851 227.982 27.8298C234.018 34.2025 242.361 52.3591 234.89 46.0036C236.387 37.5742 229.204 31.6925 224.297 25.107V25.1035Z" fill="#F7C7D9" stroke="#8D89A2" stroke-width="0.25" stroke-miterlimit="10"/>
<path d="M224.297 55.2676C234.207 58.3337 236.466 66.8627 229.362 60.9021C229.063 60.6514 226.213 56.0264 224.297 55.2676Z" fill="#F7C7D9" stroke="#8D89A2" stroke-width="0.25" stroke-miterlimit="10"/>
<path d="M244.332 58.54C245.462 58.7186 248.926 63.4397 248.016 63.6286C246.787 61.9324 245.559 60.2362 244.332 58.54Z" fill="#F7C7D9" stroke="#8D89A2" stroke-width="0.25" stroke-miterlimit="10"/>
<path d="M224.298 55.2684C223.453 54.9353 219.758 54.6641 218.309 54.3585C221.025 53.61 223.079 54.8907 224.298 55.2684Z" fill="#F7C7D9" stroke="#8D89A2" stroke-width="0.25" stroke-miterlimit="10"/>
<path d="M220.153 20.7432C220.932 21.241 222.814 22.4977 222.227 23.2874C220.871 22.453 220.49 21.1861 220.153 20.7432Z" fill="#F7C7D9" stroke="#8D89A2" stroke-width="0.25" stroke-miterlimit="10"/>
<path d="M224.297 25.1039C223.954 24.8052 222.862 24.4275 223.147 23.6515C224.129 23.5142 224.105 24.843 224.297 25.1039Z" fill="#F7C7D9" stroke="#8D89A2" stroke-width="0.25" stroke-miterlimit="10"/>
<path d="M220.153 20.7435C220.122 20.7058 218.625 20.8946 219.463 20.0156C220.136 20.4036 220.108 20.7126 220.153 20.7435Z" fill="#F7C7D9" stroke="#8D89A2" stroke-width="0.25" stroke-miterlimit="10"/>
<path d="M217.849 93.792C217.804 93.8195 218.065 94.9731 216.929 94.3379C216.991 94.077 217.832 93.8366 217.849 93.792Z" fill="#F7C7D9" stroke="#8D89A2" stroke-width="0.25" stroke-miterlimit="10"/>
<path d="M160.282 93.791C158.147 100.881 161.93 101.266 162.586 102.152C163.081 102.818 163.675 104.366 163.966 104.696C163.548 104.648 162.208 105.091 162.123 105.242C161.377 106.588 164.887 129.95 163.503 134.499C163.081 134.431 162.566 134.41 162.583 134.863C161.978 134.328 160.207 133.696 159.819 131.591C160.368 125.452 160.674 119.014 160.279 112.875C160.272 112.792 159.365 111.501 159.359 111.422C158.871 104.995 159.984 96.2391 156.595 98.1551C156.588 98.0349 156.608 97.9113 156.595 97.7911C159.997 97.2246 157.844 96.9087 160.279 93.7945L160.282 93.791Z" fill="#F7C7D9" stroke="#8D89A2" stroke-width="0.25" stroke-miterlimit="10"/>
<path d="M162.586 34.1877C161.05 35.2772 159.516 36.368 157.982 37.4599C157.978 36.1276 157.539 34.5345 157.522 33.0993C159.228 31.6812 159.077 33.6864 161.206 32.9173C158.706 28.7318 163.06 26.8433 166.27 24.378V24.0141C181.811 18.7848 167.527 23.7428 163.046 31.4649C162.686 32.0898 162.882 33.2915 162.586 34.1911V34.1877Z" fill="#F7C7D9" stroke="#8D89A2" stroke-width="0.25" stroke-miterlimit="10"/>
<path d="M164.89 49.089C159.094 49.7757 162.744 47.0804 158.442 46.5448C158.579 45.7894 158.16 45.0924 158.902 44.3644C162.119 45.7104 160.797 43.2142 161.666 41.8202C165.508 35.6295 164.832 46.6718 164.89 49.089Z" fill="#F7C7D9" stroke="#8D89A2" stroke-width="0.25" stroke-miterlimit="10"/>
<path d="M256.535 115.237C257.071 115.271 257.26 115.632 257.455 115.965C256.236 118.574 257.297 121.359 257.455 123.961C257.617 126.619 257.672 129.283 257.455 131.958C257.428 132.319 257.497 132.689 257.455 133.05C256.769 133.074 256.312 133.314 255.611 133.414C251.701 129.949 251.199 126.413 250.083 121.966C249.792 121.578 249.095 122.598 247.78 122.876C251.021 119.759 239.525 123.165 238.107 112.699C239.237 112.404 240.397 112.267 241.331 111.607C242.049 113.019 241.572 114.629 242.021 114.88C254.585 114.042 255.148 119.292 256.528 115.244L256.535 115.237Z" fill="#F7C7D9" stroke="#8D89A2" stroke-width="0.25" stroke-miterlimit="10"/>
<path d="M224.758 162.847C224.651 163.029 221.99 165.36 221.533 165.937C221.53 166.428 226.193 168.697 227.061 169.027C228.933 169.741 230.684 170.002 232.59 170.479C233.218 170.637 234.279 170.507 234.893 171.025C227.446 173.03 219.933 169.611 214.629 165.391C214.735 165.343 214.392 164.532 214.859 164.299C218.474 162.5 222.385 160.797 223.841 157.394C225.853 152.683 224.153 149.401 222.691 149.397C221.238 149.397 212.654 159.581 198.741 161.755C197.694 162.699 200.057 163.571 200.352 164.299C206.299 178.881 196.307 162.452 192.753 161.755C184.156 161.391 175.559 161.027 166.964 160.663C173 167.221 184.334 168.941 193.674 166.84C194.096 166.994 193.814 167.386 193.904 167.568C192.75 168.302 192.039 168.821 190.679 169.384C182.906 169.793 174.178 171.238 166.73 168.656C163.651 167.588 160.911 164.251 160.742 163.932C159.355 161.301 159.492 157.751 160.282 154.846C161.456 156.089 163.565 156.862 165.347 157.391C172.732 159.574 194.278 160.546 201.959 159.207C210.124 157.785 219.202 151.21 225.448 146.85C229.537 151.282 227.525 158.108 224.758 162.84V162.847Z" fill="#F7C7D9" stroke="#8D89A2" stroke-width="0.25" stroke-miterlimit="10"/>
<path d="M223.837 157.394C222.382 160.797 218.471 162.5 214.855 164.299C214.385 164.533 214.732 165.343 214.625 165.391C209.193 167.87 205.348 165.178 204.953 167.389C204.912 167.619 205.87 167.891 205.873 167.935C205.887 168.055 205.849 168.182 205.873 168.299C204.084 167.849 206.395 170.346 204.953 174.298C204.225 176.292 201.299 178.5 199.425 179.932C178.841 180.124 192.053 177.635 193.897 172.299C194.388 170.878 194.566 168.924 193.897 167.575C193.807 167.393 194.089 167.001 193.667 166.847C184.327 168.948 172.99 167.224 166.957 160.67C175.555 161.034 184.151 161.398 192.747 161.762C196.3 162.459 206.292 178.888 200.345 164.306C208.016 164.9 213.825 162.613 219.916 159.217C221.513 158.328 222.313 156.374 223.831 157.401L223.837 157.394Z" fill="#F7C7D9" stroke="#8D89A2" stroke-width="0.25" stroke-miterlimit="10"/>
<path d="M213.705 182.109C213.647 182.216 212.665 182.968 211.861 183.925C209.324 184.537 207.277 187.335 204.723 188.65C203.906 189.072 196.987 191.514 196.434 191.558C194.583 191.702 190.292 190.291 187.685 191.194C185.193 190.212 184.4 188.252 181.927 188.104C183.922 187.695 185.958 187.349 187.915 186.834C193.746 188.609 211.858 183.623 214.395 178.837C215.041 179.074 213.962 181.646 213.705 182.109Z" fill="#F7C7D9" stroke="#8D89A2" stroke-width="0.25" stroke-miterlimit="10"/>
<path d="M226.141 183.562C220.867 186.233 207.243 189.2 206.8 188.469C208.716 187.068 210.419 185.66 211.865 183.926C212.665 182.965 213.647 182.216 213.708 182.11C217.149 182.292 225.4 181.323 226.141 183.562Z" fill="#F7C7D9" stroke="#8D89A2" stroke-width="0.25" stroke-miterlimit="10"/>
<path d="M205.876 168.663C205.852 168.547 205.901 168.42 205.876 168.3C205.852 168.183 205.89 168.056 205.876 167.936C209.176 170.178 215.411 173.931 216.009 177.567C216.555 180.908 215.532 178.054 215.089 177.567C212.29 174.501 208.27 172.052 205.876 168.663Z" fill="#F7C7D9" stroke="#8D89A2" stroke-width="0.25" stroke-miterlimit="10"/>
<path d="M232.126 166.48C230.88 165.892 227.779 165.968 226.831 165.388C225.128 164.347 226.258 162.528 224.758 162.843C227.525 158.112 229.537 151.286 225.448 146.853C219.206 151.214 210.127 157.789 201.959 159.211C194.278 160.546 172.732 159.578 165.347 157.394C163.833 155.643 163.599 153.669 163.966 151.578C164.959 151.458 166.16 151.66 167.191 151.578C170.075 153.532 177.299 154.51 181.237 154.85C204.64 156.855 210.955 151.018 228.902 141.404C229.826 142.407 231.223 143.667 231.666 144.858C237.177 159.685 220.586 166.974 235.12 157.034C238.183 154.939 241.867 153.408 245.022 151.399C242.293 157.525 238.979 162.675 232.126 166.483V166.48Z" fill="#F7C7D9" stroke="#8D89A2" stroke-width="0.25" stroke-miterlimit="10"/>
<path d="M163.966 136.68C164.196 136.656 164.632 137.151 168.571 137.044C165.007 142.411 182.233 144.1 190.446 143.585C195.662 143.259 211.624 139.733 215.085 136.68C217.475 137.525 218.79 136.323 220.15 137.408C216.277 140.55 212.974 143.135 207.717 145.041C199.315 148.083 189.663 148.787 180.544 149.038C175.589 149.175 166.246 149.662 162.123 147.946C163.4 146.662 162.26 141.202 162.583 137.041C163.129 136.872 163.184 136.759 163.963 136.677L163.966 136.68Z" fill="#F7C7D9" stroke="#8D89A2" stroke-width="0.25" stroke-miterlimit="10"/>
<path d="M228.905 141.405C210.955 151.022 204.644 156.856 181.241 154.85C177.302 154.514 170.078 153.532 167.194 151.578C167.266 151.571 168.087 150.864 168.344 150.85C170.277 150.754 174.628 151.489 182.851 150.85C192.702 150.085 199.682 149.274 208.641 145.762C220.988 140.92 222.588 134.541 228.905 141.401V141.405Z" fill="#F7C7D9" stroke="#8D89A2" stroke-width="0.25" stroke-miterlimit="10"/>
<path d="M241.338 145.765C239.048 150.592 241.139 146.369 246.633 144.312C259.79 139.392 243.312 160.364 241.105 163.211C243.023 158.788 244.942 154.366 246.863 149.943C242.949 151.459 239.034 152.973 235.12 154.486C236.497 148.927 236.579 140.872 229.362 137.768C235.384 136.892 238.811 142.19 241.335 145.765H241.338Z" fill="#F7C7D9" stroke="#8D89A2" stroke-width="0.25" stroke-miterlimit="10"/>
<path d="M241.338 145.765C238.815 142.194 235.384 136.893 229.365 137.768C223.686 135.327 220.881 138.07 221.997 136.316C222.639 135.715 223.57 135.43 224.301 134.499C235.093 131.924 246.046 135.842 241.342 145.765H241.338Z" fill="#F7C7D9" stroke="#8D89A2" stroke-width="0.25" stroke-miterlimit="10"/>
<path d="M207.72 145.036L208.641 145.764C199.682 149.277 192.698 150.087 182.851 150.853C181.766 149.95 180.111 151.347 180.547 149.036C189.667 148.782 199.318 148.082 207.72 145.04V145.036Z" fill="#F7C7D9" stroke="#8D89A2" stroke-width="0.25" stroke-miterlimit="10"/>
<path d="M232.126 166.48C229.832 167.754 228.548 167.878 227.061 169.024C226.196 168.695 221.53 166.425 221.533 165.934C221.99 165.357 224.651 163.026 224.757 162.844C226.258 162.528 225.125 164.348 226.831 165.388C227.779 165.965 230.88 165.889 232.126 166.48Z" fill="#F7C7D9" stroke="#8D89A2" stroke-width="0.25" stroke-miterlimit="10"/>
<path d="M199.428 179.928C195.356 183.036 191.116 184.893 185.612 186.105C185.145 183.688 179.259 184.357 175.019 184.289C172.07 184.241 168.856 183.564 166.73 184.653C164.643 181.487 169.646 184.79 180.777 181.381C182.329 180.903 188.571 178.435 186.535 177.744C189.467 176.392 191.455 174.057 193.904 172.292C192.06 177.628 178.847 180.117 199.432 179.925L199.428 179.928Z" fill="#F7C7D9" stroke="#8D89A2" stroke-width="0.25" stroke-miterlimit="10"/>
<path d="M185.612 186.106C181.433 187.026 173.762 188.44 175.019 184.289C179.256 184.361 185.145 183.692 185.612 186.106Z" fill="#F7C7D9" stroke="#8D89A2" stroke-width="0.25" stroke-miterlimit="10"/>
<path d="M193.903 172.295C191.455 174.06 189.467 176.392 186.535 177.748C181.258 180.182 169.566 181.823 163.97 179.928C163.816 176.9 163.663 173.871 163.51 170.843C164.567 171.097 165.635 171.44 166.734 171.571C173.584 172.385 184.41 171.997 190.683 169.391C192.039 168.827 192.753 168.306 193.907 167.574C194.576 168.924 194.398 170.877 193.907 172.299L193.903 172.295Z" fill="#F7C7D9" stroke="#8D89A2" stroke-width="0.25" stroke-miterlimit="10"/>
<path d="M163.506 170.843C163.66 173.872 163.813 176.9 163.966 179.928C161.23 179.001 161.662 178.215 160.282 176.656C160.107 174.51 160.282 172.272 160.282 170.115C161.364 170.321 162.442 170.586 163.506 170.843Z" fill="#F7C7D9" stroke="#8D89A2" stroke-width="0.25" stroke-miterlimit="10"/>
<path d="M166.27 24.0114V24.3754C160.09 27.5652 163.026 16.2756 164.426 13.8344C166.476 12.8043 164.557 15.5855 164.887 18.7409C165.065 20.4645 166.071 22.2672 166.267 24.0114H166.27Z" fill="#F7C7D9" stroke="#8D89A2" stroke-width="0.25" stroke-miterlimit="10"/>
<path d="M216.009 106.148C216.218 106.32 217.152 106.694 217.389 106.876C218.982 108.082 220.548 111.052 222.224 110.873C230.107 108.027 236.899 102.856 241.335 111.601C240.401 112.257 239.24 112.398 238.111 112.693C217.492 118.08 215.999 112.195 204.263 111.24C195.497 110.526 176.162 114.379 167.881 108.696C166.435 107.704 166.064 106.241 164.887 105.06C175.359 105.905 186.556 107.357 197.124 104.514C186.46 104.246 175.847 104.143 165.347 102.516C166.449 100.356 164.753 101.369 164.427 100.881C163.273 99.1543 164.31 94.0692 164.427 91.6142C166.274 92.7026 166.528 90.4846 167.881 89.7979C174.799 86.2819 183.133 88.8262 181.927 86.8896C188.197 87.7034 194.855 90.512 199.658 93.7945C215.411 104.566 206.608 111.652 216.009 106.152V106.148Z" fill="#F7C7D9" stroke="#8D89A2" stroke-width="0.25" stroke-miterlimit="10"/>
<path d="M168.574 86.1624C167.963 86.1555 167.342 86.1864 166.73 86.1624C165.254 86.104 163.76 86.3718 162.356 85.7984C156.808 83.5357 162.184 59.8063 160.746 54.3607C161.896 53.1487 162.854 52.1873 164.43 51.2705C165.762 57.0045 162.36 79.072 162.586 80.5279C163.448 85.9975 170.246 83.4945 168.574 86.1624Z" fill="#F7C7D9" stroke="#8D89A2" stroke-width="0.25" stroke-miterlimit="10"/>
<path d="M216.009 106.148C206.611 111.649 215.411 104.562 199.658 93.7907C194.855 90.5082 188.197 87.6962 181.927 86.8858C179.071 86.515 176.063 86.3639 173.179 86.5219V85.7939C190.261 86.1751 193.502 85.3304 205.416 95.789C209.056 98.9822 210.972 102.052 216.009 106.148Z" fill="#F7C7D9" stroke="#8D89A2" stroke-width="0.25" stroke-miterlimit="10"/>
<path d="M215.549 134.86C203.995 133.607 192.685 136.33 181.237 137.04C177.223 137.291 172.688 136.93 168.571 137.04C164.633 137.147 164.197 136.652 163.967 136.676C163.994 136.24 162.93 135.166 162.586 134.86C162.572 134.407 163.087 134.427 163.506 134.496C181.11 137.332 210.024 130.692 215.549 134.86Z" fill="#F7C7D9" stroke="#8D89A2" stroke-width="0.25" stroke-miterlimit="10"/>
<path d="M165.35 102.516C175.85 104.143 186.463 104.246 197.128 104.514C186.559 107.357 175.362 105.905 164.89 105.06C164.324 104.494 163.997 104.731 163.97 104.696C163.678 104.367 163.081 102.818 162.59 102.152C163.609 102.001 164.406 102.368 165.354 102.516H165.35Z" fill="#F7C7D9" stroke="#8D89A2" stroke-width="0.25" stroke-miterlimit="10"/>
<path d="M164.427 91.6106C164.31 94.0691 163.273 99.1507 164.427 100.878C164.753 101.365 166.449 100.352 165.347 102.512C164.399 102.365 163.603 101.997 162.583 102.148C161.927 101.266 158.147 100.878 160.279 93.7875C161.584 92.1188 162.14 91.5145 163.963 90.1514C164.413 90.6836 164.454 90.9651 164.423 91.6038L164.427 91.6106Z" fill="#F7C7D9" stroke="#8D89A2" stroke-width="0.25" stroke-miterlimit="10"/>
<path d="M173.179 86.5216C176.066 86.3602 179.071 86.5148 181.927 86.8856C183.133 88.8221 174.799 86.2744 167.881 89.7938C166.528 90.4805 166.274 92.6986 164.427 91.6102C164.457 90.9715 164.416 90.6899 163.966 90.1577C167.96 87.1774 167.167 86.8547 173.179 86.5216Z" fill="#F7C7D9" stroke="#8D89A2" stroke-width="0.25" stroke-miterlimit="10"/>
<path d="M239.034 127.23C238.962 127.24 239 127.491 237.884 127.958C232.984 123.855 226.33 127.539 220.383 127.958C218.649 128.078 191.064 128.078 189.526 127.958C187.294 127.783 179.256 126.069 177.553 125.049C175.441 123.786 173.938 121.516 175.479 120.325C184.77 120.95 197.725 119.298 206.107 119.961C214.502 120.624 221.286 125.187 233.28 118.145C235.198 121.173 237.117 124.201 239.038 127.23H239.034Z" fill="#F7C7D9" stroke="#8D89A2" stroke-width="0.25" stroke-miterlimit="10"/>
<path d="M215.549 134.861C216.919 135.894 216.222 135.678 215.089 136.677C211.628 139.73 195.665 143.256 190.449 143.582C182.233 144.097 165.01 142.408 168.574 137.041C172.691 136.931 177.227 137.292 181.241 137.041C192.685 136.33 203.998 133.604 215.552 134.861H215.549Z" fill="#F7C7D9" stroke="#8D89A2" stroke-width="0.25" stroke-miterlimit="10"/>
<path d="M247.786 122.866C249.098 122.588 249.798 121.569 250.09 121.957C251.206 126.403 251.707 129.943 255.618 133.404C253.5 133.699 251.316 132.566 249.17 132.494C250.502 120.25 249.568 125.861 239.038 127.224C237.119 124.195 235.2 121.167 233.28 118.138C221.29 125.181 214.505 120.617 206.106 119.955C197.729 119.292 184.77 120.944 175.479 120.319C175.558 120.257 175.294 119.69 175.709 119.591C182.817 119.811 191.013 117.332 197.814 117.047C213.78 116.38 222.268 122.856 234.196 116.683C239.673 122.266 237.973 124.933 247.783 122.86L247.786 122.866Z" fill="#F7C7D9" stroke="#8D89A2" stroke-width="0.25" stroke-miterlimit="10"/>
<path d="M163.967 104.697C163.997 104.731 164.32 104.494 164.887 105.06C166.064 106.238 166.435 107.704 167.881 108.697C176.166 114.379 195.497 110.527 204.263 111.241C215.999 112.195 217.496 118.084 238.111 112.693C239.529 123.159 251.024 119.753 247.783 122.87C237.973 124.944 239.673 122.276 234.197 116.693C222.268 122.867 213.781 116.391 197.815 117.057C191.009 117.342 182.817 119.821 175.709 119.602C175.294 119.698 175.558 120.268 175.479 120.329C173.938 121.521 175.442 123.79 177.553 125.054C179.256 126.074 187.298 127.787 189.526 127.962C191.061 128.082 218.649 128.082 220.383 127.962C226.33 127.543 232.984 123.859 237.884 127.962C239.003 127.495 238.962 127.245 239.034 127.234C249.562 125.871 250.499 120.261 249.167 132.505C251.313 132.574 253.496 133.71 255.615 133.415C256.315 133.319 256.772 133.075 257.459 133.051C257.304 134.383 256.865 135.736 256.539 137.047C253.085 139.108 249.63 141.167 246.176 143.224C244.47 142.215 252.412 132.546 226.371 129.779C226.059 129.919 224.819 133.841 224.298 134.503C223.566 135.434 222.639 135.719 221.994 136.32C221.918 136.388 221.794 136.076 220.15 137.411C218.79 136.326 217.475 137.528 215.085 136.684C216.218 135.684 216.919 135.901 215.545 134.867C210.021 130.699 181.11 137.343 163.503 134.503C164.887 129.954 161.378 106.592 162.123 105.246C162.205 105.098 163.544 104.652 163.967 104.7V104.697Z" fill="#F7C7D9" stroke="#8D89A2" stroke-width="0.25" stroke-miterlimit="10"/>
<path d="M238.804 128.319L239.034 128.501L239.264 128.683L239.494 128.865L239.264 129.047H238.804L238.574 128.865V128.501L238.804 128.319Z" fill="#F7C7D9" stroke="#8D89A2" stroke-width="0.25" stroke-miterlimit="10"/>
<path d="M223.837 157.394C222.32 156.371 221.52 158.321 219.923 159.211C213.829 162.606 208.019 164.893 200.352 164.299C200.057 163.571 197.694 162.699 198.742 161.755C212.654 159.581 221.235 149.394 222.691 149.397C224.157 149.397 225.856 152.683 223.841 157.394H223.837Z" fill="#F7C7D9" stroke="#8D89A2" stroke-width="0.25" stroke-miterlimit="10"/>
<path d="M190.68 169.388C184.41 171.994 173.584 172.382 166.731 171.568C166.051 169.872 165.752 170.298 166.731 168.66C174.174 171.242 182.903 169.797 190.68 169.388Z" fill="#F7C7D9" stroke="#8D89A2" stroke-width="0.25" stroke-miterlimit="10"/>
<path d="M166.73 168.664C165.752 170.302 166.051 169.876 166.73 171.572C165.632 171.442 164.564 171.102 163.506 170.844C162.442 170.587 161.364 170.322 160.282 170.116C160.282 168.214 159.911 165.55 160.742 163.939C160.911 164.259 163.651 167.596 166.73 168.664Z" fill="#F7C7D9" stroke="#8D89A2" stroke-width="0.25" stroke-miterlimit="10"/>
<path d="M165.35 157.395C163.565 156.866 161.457 156.093 160.286 154.85C160.203 154.764 159.403 153.817 159.366 153.758C159.324 153.171 159.743 152.986 159.826 152.306C161.178 152.127 162.634 151.74 163.97 151.578C163.602 153.669 163.836 155.643 165.35 157.395Z" fill="#F7C7D9" stroke="#8D89A2" stroke-width="0.25" stroke-miterlimit="10"/>
<path d="M162.126 147.946C166.25 149.659 175.592 149.175 180.547 149.037C180.108 151.352 181.766 149.954 182.851 150.854C174.628 151.492 170.277 150.758 168.344 150.854C168.083 150.867 167.266 151.575 167.194 151.582C166.164 151.664 164.962 151.462 163.97 151.582C162.634 151.743 161.178 152.131 159.826 152.31C160.028 150.634 159.839 148.292 159.826 146.493C160.756 146.843 161.209 147.564 162.129 147.946H162.126Z" fill="#F7C7D9" stroke="#8D89A2" stroke-width="0.25" stroke-miterlimit="10"/>
<path d="M162.126 147.945C161.206 147.563 160.753 146.839 159.822 146.492C159.798 143.659 158.212 138.392 162.586 137.043C162.263 141.204 163.403 146.66 162.126 147.948V147.945Z" fill="#F7C7D9" stroke="#8D89A2" stroke-width="0.25" stroke-miterlimit="10"/>
<path d="M113.768 95.6105C114.52 96.85 115.138 98.2784 115.612 99.6071C115.467 99.6483 114.111 100.596 112.618 99.9711C111.134 99.3496 102.743 88.8464 101.795 87.0678C96.6824 77.4676 97.5649 69.6013 102.715 60.1727C104.772 56.4096 108.686 54.0336 106.399 53.4499C106.502 53.3675 105.943 53.4292 108.243 51.6335C108.92 51.1082 111.797 50.0026 111.927 49.6352C98.6327 35.9662 120.034 25.7067 112.388 22.5581C114.379 19.9692 117.298 18.6061 117.452 15.2893C118.805 14.812 120.244 14.2901 121.596 13.8369C133.926 19.0456 126.417 17.9915 119.292 28.1926C114.503 35.0528 109.85 45.848 119.752 51.091C98.5743 64.6982 103.261 78.2779 113.764 95.6139L113.768 95.6105Z" fill="#F7C7D9" stroke="#8D89A2" stroke-width="0.25" stroke-miterlimit="10"/>
<path d="M112.387 22.5584C105.592 31.3895 99.6524 42.1503 108.243 51.6338C105.943 53.4295 106.502 53.3677 106.399 53.4501C83.8237 72.0051 94.5502 80.2284 102.715 101.242C102.396 101.736 101.936 100.679 101.335 100.696C98.54 98.3267 96.9743 95.4013 94.8867 92.6991C95.3124 90.0106 90.4677 85.911 89.8222 80.5237C89.5028 77.8524 90.6874 70.2299 91.6659 67.6204C92.8574 64.4375 96.8266 59.2803 99.9546 56.8974C88.5723 56.8459 84.0092 64.8667 81.0735 72.345C80.9876 72.5647 79.7618 73.2686 79.2296 76.7056C76.9875 76.6919 79.858 79.7923 76.9257 80.8842C79.1678 84.8328 76.0124 84.6303 74.6218 86.1548C73.6055 83.5109 76.1566 80.9254 76.9257 78.34C77.4098 76.7125 76.9772 73.5811 80.6099 66.5285C90.2136 47.8775 100.638 58.5936 105.939 52.1728C94.4643 49.9685 101.252 34.4969 105.479 28.55C111.653 19.8631 119.622 19.4785 109.163 17.4664C111.828 16.5016 114.77 16.2304 117.452 15.2861C117.294 18.6029 114.376 19.9661 112.387 22.555V22.5584Z" fill="#F7C7D9" stroke="#8D89A2" stroke-width="0.25" stroke-miterlimit="10"/>
<path d="M109.163 17.4692C119.622 19.4847 111.653 19.8692 105.479 28.5527C101.252 34.4996 94.4643 49.9712 105.939 52.1755C100.638 58.5997 90.2135 47.8802 80.6099 66.5313C78.5909 65.8686 81.6674 58.9809 82.9138 57.2641C84.3902 55.2246 87.2881 53.2091 89.8221 51.9936C91.5595 51.1592 93.8805 50.8845 93.9664 50.7231C86.1275 41.8714 96.4077 30.2832 103.639 22.9182C104.906 21.6272 109.325 18.6606 107.783 17.8297C107.848 17.8057 107.594 17.2975 109.163 17.4657V17.4692Z" fill="#F7C7D9" stroke="#8D89A2" stroke-width="0.25" stroke-miterlimit="10"/>
<path d="M132.652 18.5587C120.738 27.7503 113.757 35.7299 122.98 48.9045C108.703 61.5777 106.32 75.312 112.848 91.2471C113.301 92.3561 114.348 94.7184 113.768 95.6077C103.264 78.2717 98.5777 64.692 119.756 51.0848C109.85 45.8452 114.506 35.0466 119.296 28.1864C126.42 17.9853 133.93 19.0394 121.6 13.8307C122.359 13.5766 124.013 12.6667 124.364 12.0143C124.975 12.1242 125.263 11.8221 125.744 11.6504C129.26 15.5887 128.587 18.8334 135.416 16.5569C134.963 17.1372 133.985 17.5286 132.652 18.5553V18.5587Z" fill="#F7C7D9" stroke="#8D89A2" stroke-width="0.25" stroke-miterlimit="10"/>
<path d="M103.635 22.9225C102.921 22.9706 103.254 22.2427 103.175 22.1946C102.602 21.8478 95.8719 25.7002 94.6565 26.5552C86.3576 32.3957 78.4845 42.6929 76.0054 51.2699C75.1711 51.6304 74.6835 51.7266 73.7015 51.6339C76.6681 44.444 75.5351 40.1899 87.5182 30.1914C89.0461 28.9175 95.4909 24.3165 97.1905 23.2864C100.233 21.4392 104.332 19.1387 107.783 17.834C109.325 18.6649 104.906 21.6315 103.639 22.9225H103.635Z" fill="#F7C7D9" stroke="#8D89A2" stroke-width="0.25" stroke-miterlimit="10"/>
<path d="M89.8221 51.9978C87.2881 53.2133 84.3902 55.2253 82.9137 57.2683C81.6708 58.9885 78.5943 65.8728 80.6098 66.5355C76.9771 73.588 77.4098 76.7194 76.9256 78.3469C76.1565 80.9289 73.6088 83.5178 74.6217 86.1617C69.7942 91.4631 65.1485 98.162 64.0292 104.696C62.309 104.274 63.1914 99.2469 63.109 97.4272C67.6413 92.9223 67.4902 82.7247 71.3976 75.0747C72.7161 72.4927 74.9444 70.1716 76.4621 67.6239C76.5204 67.5243 77.6742 66.7518 78.3059 65.9895C78.5085 64.8393 70.2371 55.1155 86.3645 45.8174C87.5159 47.8775 88.6673 49.9365 89.8187 51.9943L89.8221 51.9978Z" fill="#F7C7D9" stroke="#8D89A2" stroke-width="0.25" stroke-miterlimit="10"/>
<path d="M103.635 22.9222C96.4077 30.2838 86.1242 41.8755 93.963 50.7272C93.8772 50.892 91.5561 51.1667 89.8187 51.9976C88.6673 49.9375 87.5159 47.8785 86.3645 45.8206C70.2371 55.1187 78.5086 64.8425 78.306 65.9928C77.6776 66.755 76.5239 67.5276 76.4621 67.6271C75.7548 66.1782 75.3154 67.658 74.6183 67.6271C74.2784 67.6134 72.8638 65.3644 69.0903 69.2615C67.2121 71.2049 68.0053 74.072 65.8662 71.9878C67.4903 65.907 69.1933 59.5823 73.6947 54.3599C73.8424 53.529 73.4819 52.1521 73.6947 51.6337C74.6767 51.7264 75.1643 51.6336 75.9986 51.2697C80.7747 49.1992 96.703 26.2803 103.172 22.1943C103.251 22.2424 102.918 22.9703 103.632 22.9222H103.635Z" fill="#F7C7D9" stroke="#8D89A2" stroke-width="0.25" stroke-miterlimit="10"/>
<path d="M93.0428 177.748C93.3553 178.85 96.5519 180.924 97.8773 181.745C98.4095 182.074 98.5365 181.36 98.5674 181.381C102.276 183.753 105.091 187.183 110.31 189.014C120.913 190.555 131.238 193.656 142.088 193.738L143.238 194.466C142.026 194.827 140.464 194.651 139.554 195.558C129.25 196.43 118.307 195.427 108.696 192.286C102.396 190.226 93.7845 184.742 89.8153 180.474C89.7226 180.375 90.4814 180.042 88.8951 178.112C90.2823 177.357 90.8556 178.229 93.0394 177.748H93.0428Z" fill="#F7C7D9" stroke="#8D89A2" stroke-width="0.25" stroke-miterlimit="10"/>
<path d="M76.4655 67.6235C74.9445 70.1712 72.7161 72.4923 71.401 75.0743C67.4936 82.7243 67.6413 92.922 63.1125 97.4268C62.6489 87.3939 63.1948 84.6265 65.4164 74.8924C65.6945 79.4487 71.1195 72.1043 74.6286 67.6235C75.3222 67.6544 75.7616 66.1745 76.4724 67.6235H76.4655Z" fill="#F7C7D9" stroke="#8D89A2" stroke-width="0.25" stroke-miterlimit="10"/>
<path d="M74.6218 67.6234C71.1127 72.1042 65.6877 79.4486 65.4095 74.8923C65.6156 73.9858 65.6156 72.9352 65.8697 71.9841C68.0088 74.0717 67.2156 71.2012 69.0937 69.2578C72.8672 65.3573 74.2785 67.6063 74.6218 67.6234Z" fill="#F7C7D9" stroke="#8D89A2" stroke-width="0.25" stroke-miterlimit="10"/>
<path d="M115.611 99.607C115.934 99.5177 116.113 100.465 117.455 99.0611C113.184 85.1037 126.07 71.7712 142.325 67.2595C144.316 67.5651 144.646 67.0363 146.239 66.5316C148.536 69.5634 136.072 71.7609 128.968 77.979C124.474 81.9139 118.997 90.0514 126.894 93.0627C128.412 93.6429 137.147 94.7829 151.763 100.695C152.927 101.166 154.713 100.167 154.757 102.512C151.001 106.248 149.511 103.37 143.935 103.24C132.378 102.968 128.367 103.906 117.685 106.148C117.308 106.227 112.731 105.763 113.311 107.6C113.239 107.611 113.706 107.683 111.931 107.964C109.105 108.414 107.22 109.424 106.173 109.417C102.578 108.847 94.8969 105.142 94.1999 105.056C90.6977 104.617 80.6442 106.773 76.2389 107.236C75.3222 107.693 69.5641 117.516 69.1005 118.866H68.6405C70.4466 107.69 69.6911 101.204 90.2856 99.4216C83.1884 93.7391 77.99 84.7775 79.233 76.7052C79.7617 73.2682 80.9876 72.5643 81.0768 72.3446C80.2081 82.8409 87.8581 91.7442 97.1974 98.6937C99.8755 100.685 98.9966 100.764 101.342 100.692C101.943 100.675 102.403 101.732 102.722 101.238C94.5569 80.2211 83.8306 72.0012 106.406 53.4463C108.693 54.03 104.779 56.406 102.722 60.1692C97.5716 69.5977 96.6892 77.4606 101.802 87.0642C102.749 88.8428 111.141 99.3461 112.624 99.9675C114.118 100.592 115.474 99.6448 115.618 99.6036L115.611 99.607Z" fill="#F7C7D9" stroke="#8D89A2" stroke-width="0.25" stroke-miterlimit="10"/>
<path d="M115.151 85.069C114.194 87.1498 113.215 89.0211 112.848 91.246C106.32 75.3109 108.7 61.5767 122.98 48.9034C113.757 35.7288 120.734 27.7458 132.652 18.5576C133.899 22.7878 127.966 27.3441 126.664 29.6411C119.581 42.1667 129.322 43.499 128.044 49.6313C127.244 53.4838 115.639 59.0015 113.308 71.4378C112.607 75.177 113.332 86.9163 115.151 85.0656V85.069Z" fill="#F7C7D9" stroke="#8D89A2" stroke-width="0.25" stroke-miterlimit="10"/>
<path d="M164.89 49.0892H167.654C167.602 49.1338 167.269 49.6179 167.194 49.8171C165.8 50.0437 164.842 51.0325 164.43 51.2695C162.854 52.1862 161.896 53.1442 160.746 54.3597C162.188 59.8053 156.807 83.5346 162.356 85.7973C163.764 86.3707 165.254 86.1029 166.73 86.1613C165.611 87.26 159.214 88.0257 157.748 87.9776C155.252 87.8987 154.819 86.381 152.454 86.8858C152.598 86.6454 153.309 85.8351 153.374 85.7939C155.118 84.7364 156.917 83.6926 157.518 81.9792C157.211 82.0387 156.905 82.0994 156.598 82.1612C157.57 80.6401 156.818 60.2791 157.978 55.8121C156.842 51.6438 152.835 50.6377 154.524 49.4531C154.768 49.2815 157.7 50.6583 158.438 46.5449C162.741 47.0806 159.087 49.7759 164.887 49.0892H164.89Z" fill="#F7C7D9" stroke="#8D89A2" stroke-width="0.25" stroke-miterlimit="10"/>
<path d="M142.321 67.2594C126.067 71.7676 113.181 85.1036 117.452 99.061C116.113 100.465 115.934 99.5142 115.608 99.6069C115.138 98.2781 114.516 96.8498 113.764 95.6102C114.345 94.7209 113.297 92.3552 112.844 91.2496C113.212 89.0213 114.19 87.15 115.148 85.0727C117.761 79.3936 117.713 80.8872 121.596 76.712C123.626 74.5282 123.083 76.1763 125.281 72.3513C125.823 71.4037 126.129 70.3255 126.891 69.4431C123.55 77.0828 134.781 68.4542 134.949 67.8087C136.285 62.6859 126.276 63.9666 125.737 63.4481C137.013 53.8239 131.736 47.0529 132.876 46.9121C136.062 53.4977 133.435 56.2548 131.265 62.3597C134.63 63.4103 138.991 66.7581 142.318 67.2662L142.321 67.2594Z" fill="#F7C7D9" stroke="#8D89A2" stroke-width="0.25" stroke-miterlimit="10"/>
<path d="M159.822 131.592H156.138C156.924 126.943 155.554 114.146 156.138 107.787C155.499 107.436 155.269 106.921 155.218 106.877C156.989 106.379 156.035 102.973 156.138 101.424C156.148 101.26 156.776 100.779 156.598 98.1521C159.987 96.2362 158.871 104.988 159.362 111.419C159.369 111.502 160.279 112.793 160.282 112.872C160.677 119.011 160.371 125.449 159.822 131.588V131.592Z" fill="#F7C7D9" stroke="#8D89A2" stroke-width="0.25" stroke-miterlimit="10"/>
<path d="M165.35 12.0166H165.81C165.096 12.6518 164.863 13.081 164.43 13.833C163.026 16.2742 160.093 27.5637 166.274 24.374C163.06 26.8393 158.71 28.7277 161.209 32.9132C159.08 33.6823 159.232 31.6772 157.525 33.0952C157.498 30.9149 159.565 30.29 156.605 24.556C157.218 23.4664 157.833 22.3756 158.449 21.2838C154.819 17.9258 161.566 12.8613 165.357 12.0166H165.35Z" fill="#F7C7D9" stroke="#8D89A2" stroke-width="0.25" stroke-miterlimit="10"/>
<path d="M155.218 106.876C151.746 103.985 140.869 107.37 137.027 106.876C136.852 106.852 136.587 105.811 136.106 105.784C125.081 105.19 123.467 106.024 113.311 107.6C112.731 105.763 117.308 106.227 117.685 106.148C128.371 103.906 132.378 102.968 143.935 103.24C149.511 103.37 151.001 106.251 154.757 102.512C154.819 102.45 156.004 102.035 156.138 101.42C156.035 102.968 156.989 106.371 155.218 106.872V106.876Z" fill="#F7C7D9" stroke="#8D89A2" stroke-width="0.25" stroke-miterlimit="10"/>
<path d="M173.179 85.7979V86.5258C167.166 86.8588 167.963 87.1781 163.966 90.1619C162.143 91.5216 161.587 92.1259 160.282 93.7981C157.848 96.9157 160.001 97.2281 156.598 97.7947C156.255 94.5294 154.586 90.21 150.61 88.3456C149.545 87.161 150.397 87.3292 152.454 86.8931C154.819 86.3884 155.252 87.9061 157.748 87.985C159.211 88.0297 165.611 87.2674 166.73 86.1687C167.342 86.1927 167.96 86.1618 168.574 86.1687C169.436 86.179 170.569 85.7464 173.179 85.8047V85.7979Z" fill="#F7C7D9" stroke="#8D89A2" stroke-width="0.25" stroke-miterlimit="10"/>
<path d="M156.598 82.1615C156.905 82.102 157.211 82.0413 157.518 81.9795C156.914 83.6928 155.115 84.7401 153.374 85.7942C145.868 83.7306 136.343 85.0628 129.885 88.7024C128.91 85.5607 134.929 83.5555 137.943 82.886C148.845 80.4653 155.307 84.177 156.594 82.158L156.598 82.1615Z" fill="#F7C7D9" stroke="#8D89A2" stroke-width="0.25" stroke-miterlimit="10"/>
<path d="M153.374 85.7973C153.309 85.8385 152.598 86.6454 152.454 86.8891C150.4 87.3286 149.545 87.1604 150.61 88.3415C147.781 87.0127 141.741 86.9681 138.407 87.2496C132.549 87.7475 130.304 90.0411 129.888 88.702C136.343 85.0625 145.868 83.7303 153.377 85.7938L153.374 85.7973Z" fill="#F7C7D9" stroke="#8D89A2" stroke-width="0.25" stroke-miterlimit="10"/>
<path d="M162.586 34.1875C162.421 34.6888 159.935 36.567 161.666 41.8203C160.801 43.2144 162.119 45.7105 158.902 44.3646C156.131 43.2075 157.985 39.1559 157.982 37.4597C159.518 36.3701 161.052 35.2794 162.586 34.1875Z" fill="#F7C7D9" stroke="#8D89A2" stroke-width="0.25" stroke-miterlimit="10"/>
<path d="M147.389 6.56447C157.116 7.20654 158.696 13.2084 159.592 13.1054C163.355 7.69413 169.814 6.18334 177.323 6.56447C179.417 6.67091 180.039 7.10697 181.007 7.29238C179.366 7.79711 179.915 8.06152 179.627 8.38427C179.592 8.42547 178.648 8.28467 178.706 8.56622C187.919 15.2582 173.611 7.54645 172.258 9.29413C173.577 9.9362 175.026 10.7637 176.403 11.2925L175.942 12.3843C172.907 11.2478 168.646 11.2856 165.35 12.0204C161.559 12.8651 154.812 17.9295 158.442 21.2876C157.828 22.3771 157.214 23.4679 156.598 24.5598C159.558 30.2938 157.494 30.9187 157.518 33.099C157.535 34.5377 157.975 36.1274 157.978 37.4596C157.982 39.1558 156.131 43.2074 158.898 44.3645C158.157 45.0924 158.572 45.7894 158.438 46.5448C157.7 50.6582 154.768 49.2814 154.524 49.453C152.835 50.6376 156.842 51.6437 157.978 55.812C156.818 60.2791 157.566 80.64 156.598 82.1611C155.31 84.18 148.845 80.4684 137.947 82.889C134.932 83.5586 128.91 85.5603 129.888 88.7055C130.304 90.0411 132.549 87.7475 138.407 87.2531C141.741 86.9715 147.78 87.0162 150.61 88.345C154.586 90.2094 156.254 94.5322 156.598 97.7941C156.612 97.9142 156.591 98.0379 156.598 98.158C156.776 100.785 156.148 101.265 156.138 101.43C156.004 102.045 154.816 102.46 154.757 102.522C154.713 100.174 152.927 101.176 151.763 100.706C137.147 94.7932 128.412 93.6532 126.894 93.0729C118.997 90.0617 124.47 81.9242 128.968 77.9893C136.072 71.7712 148.532 69.5737 146.239 66.5419C144.646 67.0466 144.316 67.5719 142.325 67.2698C138.997 66.7616 134.637 63.4139 131.272 62.3632C133.442 56.2583 136.072 53.5012 132.882 46.9156C131.742 47.0564 137.02 53.8274 125.744 63.4517C126.283 63.9701 136.288 62.6894 134.956 67.8123C134.788 68.4612 123.557 77.0863 126.898 69.4466C126.135 70.3291 125.83 71.4072 125.287 72.3549C121.376 73.4433 121.318 73.5498 121.603 76.7155C117.723 80.8873 117.768 79.3971 115.155 85.0762C113.335 86.9269 112.611 75.1875 113.311 71.4484C115.642 59.012 127.248 53.4943 128.048 49.6419C129.322 43.5095 119.584 42.1808 126.668 29.6517C127.969 27.3512 133.899 22.7949 132.656 18.5682C133.988 17.5415 134.963 17.1501 135.42 16.5699C128.594 18.8463 129.263 15.6016 125.747 11.6633C126.54 11.3817 127.282 11.1963 128.051 10.9354C128.985 10.6229 131.433 10.4101 134.039 9.48299C134.211 9.42119 134.74 9.50018 135.42 9.11906C133.432 11.7904 139.437 9.09155 146.932 10.7534C144.21 11.0315 141.044 11.5157 139.334 13.4797C143.326 13.1157 147.317 12.7517 151.307 12.3878C148.773 10.449 146.24 8.51016 143.708 6.57134C144.872 6.53357 146.246 6.4958 147.392 6.57134L147.389 6.56447Z" fill="#F7C7D9" stroke="#8D89A2" stroke-width="0.25" stroke-miterlimit="10"/>
<path d="M179.627 8.38379C182.837 10.2619 188.849 13.5616 187.225 15.2887C184.605 12.686 179.895 12.6311 176.403 11.292C175.026 10.7632 173.573 9.93572 172.258 9.29365C173.611 7.54597 187.915 15.2577 178.707 8.56574C178.648 8.28418 179.592 8.42499 179.627 8.38379Z" fill="#F7C7D9" stroke="#8D89A2" stroke-width="0.25" stroke-miterlimit="10"/>
<path d="M140.711 25.1018C147.386 24.4837 150.822 29.8024 148.999 29.4624C148.117 29.2976 140.615 22.9387 134.032 31.4607C138.331 31.5821 142.63 31.7034 146.929 31.8247C134.911 31.399 128.855 40.2403 141.634 44.364V45.0919C122.887 43.2001 132.213 25.8881 140.714 25.1018H140.711Z" fill="#F7C7D9" stroke="#8D89A2" stroke-width="0.25" stroke-miterlimit="10"/>
<path d="M143.705 6.56445C146.239 8.50327 148.772 10.4421 151.303 12.3809C147.311 12.7449 143.32 13.1088 139.33 13.4728C141.044 11.5122 144.206 11.0247 146.929 10.7465C139.433 9.0847 133.428 11.7835 135.416 9.11217C137.847 7.75248 134.832 7.8074 136.106 7.2958C136.446 7.15846 142.785 6.59879 143.705 6.56789V6.56445Z" fill="#F7C7D9" stroke="#8D89A2" stroke-width="0.25" stroke-miterlimit="10"/>
<path d="M146.235 37.4597C147.808 37.391 153.027 38.6683 152.914 39.0941C148.951 38.9052 144.972 38.5825 141.171 39.64V38.9121C141.332 38.7404 145.961 37.47 146.235 37.4597Z" fill="#F7C7D9" stroke="#8D89A2" stroke-width="0.25" stroke-miterlimit="10"/>
<path d="M146.695 18.1978C153.556 17.5042 151.485 19.7395 142.321 20.1961C142.043 19.5884 145.72 18.294 146.695 18.1978Z" fill="#F7C7D9" stroke="#8D89A2" stroke-width="0.25" stroke-miterlimit="10"/>
<path d="M125.284 72.3486C123.086 76.1736 123.629 74.5255 121.6 76.7093C121.315 73.5435 121.373 73.4336 125.284 72.3486Z" fill="#F7C7D9" stroke="#8D89A2" stroke-width="0.25" stroke-miterlimit="10"/>
<path d="M108.243 51.633C99.6523 42.1495 105.592 31.3887 112.387 22.5576C120.034 25.7062 98.6326 35.9623 111.927 49.6347C111.797 50.0021 108.919 51.1077 108.243 51.633Z" fill="#F7C7D9" stroke="#8D89A2" stroke-width="0.25" stroke-miterlimit="10"/>
<path d="M91.6625 67.6241C83.8958 79.6381 87.3535 82.9515 94.8867 92.7028C96.9743 95.405 98.54 98.3304 101.335 100.7C98.9898 100.768 99.8653 100.693 97.1906 98.7012C87.8513 91.7517 80.2048 82.8485 81.0701 72.3521C84.0058 64.8738 88.569 56.853 99.9512 56.9045C96.8232 59.2874 92.8505 64.4446 91.6625 67.6275V67.6241Z" fill="#F7C7D9" stroke="#8D89A2" stroke-width="0.25" stroke-miterlimit="10"/>
<path d="M94.8867 92.7027C87.3535 82.9514 83.8958 79.638 91.6625 67.624C90.684 70.2335 89.4994 77.8561 89.8187 80.5274C90.4643 85.9146 95.309 90.0143 94.8832 92.7027H94.8867Z" fill="#F7C7D9" stroke="#8D89A2" stroke-width="0.25" stroke-miterlimit="10"/>
<path d="M103.175 22.1939C96.7098 26.2798 80.7782 49.1988 76.0021 51.2692C78.4845 42.6922 86.3542 32.3984 94.6531 26.5545C95.8686 25.6995 102.602 21.8471 103.172 22.1939H103.175Z" fill="#F7C7D9" stroke="#8D89A2" stroke-width="0.25" stroke-miterlimit="10"/>
<path d="M85.6743 131.591C86.8761 132.775 101.263 150.472 101.795 151.581C103.11 154.705 102.626 156.594 102.715 156.851C102.832 157.188 104.614 158.245 105.479 163.21C97.4171 157.243 94.2205 147.777 88.8985 142.856C88.5517 142.534 87.5319 141.023 87.2881 141.04C87.0569 141.221 86.8268 141.403 86.5979 141.586C86.4228 149.177 86.3508 156.752 89.8221 163.938C89.75 163.955 89.465 164.848 88.6718 164.666C86.1344 164.086 83.8374 159.447 83.3773 157.397C82.3507 152.855 83.7138 139.498 84.2975 138.681C85.5301 136.961 88.6581 138.904 88.4418 136.501C88.1362 133.102 77.1935 136.096 76.9291 143.588C76.0226 143.735 74.9067 142.908 74.165 142.496C74.6492 138.218 78.5428 132.889 76.4689 132.683C78.3711 130.468 74.4912 130.519 83.6073 129.774C84.2185 130.358 85.1044 131.024 85.6812 131.591H85.6743Z" fill="#F7C7D9" stroke="#8D89A2" stroke-width="0.25" stroke-miterlimit="10"/>
<path d="M82.9138 121.049C83.5971 123.48 95.7107 129.173 100.645 135.223C101.445 135.357 104.075 134.32 105.479 134.131C105.215 135.106 106.32 135.838 106.399 136.311C106.485 136.823 105.218 136.507 105.479 137.221C109.836 141.129 114.873 144.614 121.136 146.489C122.619 152.6 108.913 142.248 108.01 142.128C107.951 142.121 107.258 142.636 107.32 142.856C102.842 140.233 98.7391 137.273 94.4231 134.495C91.4737 132.596 88.6444 130.409 85.9044 128.318C75.9952 128.558 77.0253 124.668 71.8578 137.039C69.5333 135.553 68.7607 132.129 68.1736 129.407C70.4775 124.843 77.7429 121.945 82.9104 121.046L82.9138 121.049Z" fill="#F7C7D9" stroke="#8D89A2" stroke-width="0.25" stroke-miterlimit="10"/>
<path d="M154.757 180.293C149.902 188.101 135.694 187.256 126.664 184.289C123.677 183.307 123.43 183.132 121.136 181.381C115.831 177.329 113.174 172.189 113.768 166.297C110.417 163.691 103.563 156.879 104.555 154.122C110.41 160.182 114.928 162.088 115.148 162.661C114.451 171.012 124.371 181.683 135.183 182.833C144.649 183.84 149.453 181.632 154.754 180.289L154.757 180.293Z" fill="#F7C7D9" stroke="#8D89A2" stroke-width="0.25" stroke-miterlimit="10"/>
<path d="M94.4266 134.5C95.9682 138.458 107.635 148.855 111.697 151.218C119.083 155.516 139.468 158.613 148.769 159.214C142.002 159.386 134.785 160.08 128.045 159.942L129.655 158.85C117.586 157.549 109.915 153.631 101.792 146.675C96.521 142.163 89.8496 132.151 85.671 131.591C85.0976 131.025 84.2083 130.359 83.5971 129.775C74.481 130.517 78.3609 130.469 76.4587 132.683C75.6931 133.576 73.293 137.119 71.8544 137.044C77.0219 124.673 75.9918 128.563 85.901 128.323C88.641 130.414 91.4703 132.604 94.4197 134.5H94.4266Z" fill="#F7C7D9" stroke="#8D89A2" stroke-width="0.25" stroke-miterlimit="10"/>
<path d="M104.559 154.125C103.567 156.882 110.417 163.695 113.771 166.301C113.177 172.193 115.835 177.333 121.14 181.384C116.37 180.763 111.265 175.317 110.317 171.571C107.337 177.566 114.046 187.592 109.167 182.655C108.569 182.05 103.216 171.65 103.179 171.025C103.065 169.068 105.634 167.987 104.099 166.119C104.209 166.06 104.387 166.294 105.019 165.755C105.091 165.693 105.781 165.906 105.939 165.573C106.217 163.993 105.513 163.417 105.479 163.211C104.614 158.246 102.832 157.188 102.715 156.852C102.626 156.594 103.11 154.706 101.795 151.581H102.255C102.719 152.604 103.752 153.291 104.559 154.125Z" fill="#F7C7D9" stroke="#8D89A2" stroke-width="0.25" stroke-miterlimit="10"/>
<path d="M156.598 181.381C156.498 181.91 155.887 183.815 155.678 184.289C154.723 186.438 151.084 190.432 148.769 191.922C145.655 191.74 138.695 190.888 136.103 190.105C134.589 189.649 124.405 185.659 126.661 184.289C135.691 187.256 149.899 188.1 154.754 180.292C154.823 180.275 155.839 179.52 155.904 179.564C156.522 179.98 155.643 181.309 156.594 181.381H156.598Z" fill="#F7C7D9" stroke="#8D89A2" stroke-width="0.25" stroke-miterlimit="10"/>
<path d="M78.7661 117.053C79.3464 117.839 81.9422 118.705 83.8306 119.597C82.9276 119.783 82.7353 120.432 82.9104 121.05C77.7429 121.949 70.4775 124.847 68.1736 129.411C66.189 120.219 68.4277 120.143 68.6337 118.869H69.0938C65.8902 128.185 75.6896 116.645 77.6124 110.509C93.8738 115.117 84.9122 112.579 76.6923 117.05C77.3755 117.084 78.0829 117.002 78.7661 117.05V117.053Z" fill="#F7C7D9" stroke="#8D89A2" stroke-width="0.25" stroke-miterlimit="10"/>
<path d="M105.479 163.211C105.513 163.417 106.217 163.993 105.939 165.573C105.781 165.906 105.091 165.693 105.019 165.755C100.607 163.942 96.4591 160.862 93.9664 157.394C92.0504 154.73 90.835 151.609 89.8221 148.673C89.2624 147.056 87.8958 144.151 88.9019 142.856C94.2239 147.773 97.4171 157.243 105.483 163.211H105.479Z" fill="#F7C7D9" stroke="#8D89A2" stroke-width="0.25" stroke-miterlimit="10"/>
<path d="M83.3739 157.394C78.9652 156.838 80.239 153.83 80.1497 152.306C79.6244 143.255 82.8829 134.294 76.9257 143.585C77.1935 136.093 88.1328 133.099 88.4384 136.498C88.6547 138.901 85.5267 136.958 84.2941 138.678C83.7069 139.495 82.3473 152.852 83.3739 157.394Z" fill="#F7C7D9" stroke="#8D89A2" stroke-width="0.25" stroke-miterlimit="10"/>
<path d="M105.019 165.755C104.384 166.294 104.205 166.06 104.099 166.119C102.396 167.015 89.1285 173.35 88.2118 173.388C87.9233 173.401 85.2554 171.54 85.2176 171.389C85.0047 170.503 95.666 166.617 97.1905 165.937C97.5029 165.305 91.3053 158.661 93.9663 157.397C96.4591 160.862 100.607 163.945 105.019 165.758V165.755Z" fill="#F7C7D9" stroke="#8D89A2" stroke-width="0.25" stroke-miterlimit="10"/>
<path d="M88.8985 142.857C87.8959 144.148 89.259 147.056 89.8187 148.673C88.3114 149.919 90.4539 153.03 90.7389 154.671C91.2745 157.738 91.1268 161.03 91.659 164.121C90.7697 164.711 90.0899 163.877 89.8153 163.939C86.3439 156.752 86.4194 149.178 86.5911 141.586C86.8223 141.405 87.0523 141.223 87.2813 141.04C87.5285 141.023 88.5449 142.537 88.8917 142.857H88.8985Z" fill="#F7C7D9" stroke="#8D89A2" stroke-width="0.25" stroke-miterlimit="10"/>
<path d="M79.2295 76.708C77.9866 84.7803 83.185 93.7384 90.2821 99.4244C69.6877 101.206 70.4431 107.692 68.6371 118.869C68.4311 120.142 66.1923 120.218 68.1769 129.41C68.7641 132.129 69.5366 135.556 71.8611 137.042C73.2998 137.115 75.6998 133.571 76.4655 132.682C78.5394 132.888 74.6492 138.217 74.1616 142.495C72.7676 141.726 71.9367 140.188 70.2474 139.587C69.025 141.815 77.5917 146.9 80.1497 152.308C80.239 153.833 78.9652 156.84 83.3739 157.397C83.8374 159.446 86.131 164.085 88.6684 164.665C89.465 164.847 89.75 163.955 89.8187 163.938C90.0899 163.876 90.7731 164.71 91.6624 164.119C91.1302 161.029 91.2779 157.737 90.7423 154.67C90.4573 153.033 88.3113 149.918 89.8221 148.672C90.8384 151.608 92.0504 154.729 93.9663 157.393C91.3019 158.657 97.5029 165.301 97.1905 165.932C95.6626 166.609 85.0048 170.496 85.2176 171.385C85.2554 171.536 87.9234 173.397 88.2118 173.383C89.1285 173.345 102.399 167.011 104.099 166.114C105.63 167.982 103.065 169.064 103.179 171.021C103.216 171.649 108.569 182.05 109.167 182.65C114.049 187.584 107.34 177.562 110.317 171.567C111.265 175.313 116.37 180.759 121.14 181.38C123.433 183.131 123.677 183.306 126.668 184.288C124.412 185.655 134.592 189.645 136.11 190.105C138.699 190.888 145.662 191.739 148.776 191.921C147.176 192.951 145.168 193.895 143.248 194.465L142.098 193.737C131.248 193.655 120.923 190.554 110.32 189.013C105.101 187.186 102.282 183.753 98.5777 181.38C99.4223 178.956 100.267 176.533 101.112 174.111C100.713 173.926 95.484 177.212 93.053 177.747C90.8659 178.228 90.2959 177.352 88.9087 178.111C88.1224 177.153 84.009 172.449 83.8442 172.113C83.5043 171.436 84.3284 171.076 84.3043 171.021C84.2013 170.777 82.1653 169.239 83.3842 166.296C79.9472 162.392 76.39 158.392 73.7118 154.121C68.922 146.481 66.5048 139.099 64.9631 130.68C64.9185 130.44 64.3038 129.276 63.5828 129.228C63.6034 124.194 66.2576 119.737 65.6567 119.597C63.0369 126.975 63.0575 113.639 63.5828 109.965C63.8987 107.754 65.5091 107.205 65.4267 107.057C64.7468 105.849 63.2807 109.152 64.0464 104.695C65.1657 98.1609 69.8113 91.462 74.6389 86.1606C76.0261 84.6361 79.1849 84.8386 76.9428 80.8901C79.8751 79.7982 77.0046 76.6977 79.2467 76.7114L79.2295 76.708Z" fill="#F7C7D9" stroke="#8D89A2" stroke-width="0.25" stroke-miterlimit="10"/>
<path d="M77.6158 89.4297C79.9941 92.6412 82.3736 95.8516 84.7542 99.0608C71.9642 98.9887 78.5772 95.2496 76.6956 94.5182C74.2395 98.3959 71.7834 102.272 69.3272 106.148C68.7985 100.427 73.3925 93.9723 77.6158 89.4297Z" fill="#F7C7D9" stroke="#8D89A2" stroke-width="0.25" stroke-miterlimit="10"/>
<path d="M74.1618 142.491C74.9034 142.9 76.0193 143.731 76.9258 143.583C82.883 134.292 79.6245 143.253 80.1499 152.304C77.5919 146.896 69.0252 141.811 70.2475 139.583C71.9369 140.18 72.7677 141.722 74.1618 142.491Z" fill="#F7C7D9" stroke="#8D89A2" stroke-width="0.25" stroke-miterlimit="10"/>
<path d="M98.5708 181.381C98.5399 181.36 98.4128 182.074 97.8806 181.745C96.5518 180.924 93.3552 178.85 93.0461 177.748C95.4805 177.213 100.706 173.927 101.105 174.112C100.26 176.536 99.4154 178.959 98.5708 181.381Z" fill="#F7C7D9" stroke="#8D89A2" stroke-width="0.25" stroke-miterlimit="10"/>
<path d="M155.218 106.876C155.269 106.917 155.499 107.436 156.138 107.786C155.554 114.148 156.924 126.942 156.138 131.591C155.901 132.988 155.997 132.617 155.218 133.771C136.388 127.824 116.563 125.85 96.5004 124.686C91.7621 123.652 87.9646 121.547 83.834 119.597C81.9456 118.705 79.3464 117.839 78.7695 117.053C86.7457 117.623 88.5929 120.62 96.0403 122.142C99.0961 122.413 102.032 121.599 105.022 121.414C119.752 120.504 131.392 119.584 146.472 121.596C125.71 115.322 113.881 119.292 102.722 119.597C90.574 119.93 83.0923 111.958 89.3654 107.604C90.9792 109.242 95.2815 113.589 97.424 114.145C99.2644 114.625 105.366 114.443 103.642 111.964C105.908 111.278 109.575 108.943 111.931 107.968C113.706 107.686 113.242 107.614 113.311 107.604C123.471 106.024 125.081 105.19 136.106 105.787C136.587 105.815 136.852 106.855 137.027 106.879C140.869 107.374 151.746 103.988 155.218 106.879V106.876Z" fill="#F7C7D9" stroke="#8D89A2" stroke-width="0.25" stroke-miterlimit="10"/>
<path d="M111.927 107.968C109.572 108.944 105.901 111.278 103.639 111.965C102.856 112.202 101.956 112.858 101.105 112.693C96.4111 110.18 95.3502 103.45 89.362 107.604C83.0889 111.958 90.5673 119.931 102.719 119.598L105.023 121.414C102.035 121.6 99.0961 122.413 96.0403 122.142C88.5929 120.621 86.7457 117.627 78.7696 117.054C78.0897 117.006 77.3824 117.088 76.6957 117.054C84.9156 112.58 93.8772 115.117 77.6158 110.513C75.6896 116.648 65.8937 128.189 69.0972 118.873C69.5607 117.524 75.3188 107.701 76.2355 107.244C80.6408 106.78 90.6943 104.624 94.1965 105.064C94.8935 105.149 102.574 108.854 106.169 109.424C107.217 109.428 109.102 108.418 111.927 107.972V107.968Z" fill="#F7C7D9" stroke="#8D89A2" stroke-width="0.25" stroke-miterlimit="10"/>
<path d="M128.044 159.938C126.52 159.907 124.958 160.02 123.44 159.938C114.554 159.454 108.566 156.202 102.255 151.577H101.795C101.263 150.468 86.8761 132.771 85.6743 131.587C89.8495 132.147 96.5243 142.155 101.795 146.671C109.919 153.627 117.589 157.545 129.658 158.846L128.048 159.938H128.044Z" fill="#F7C7D9" stroke="#8D89A2" stroke-width="0.25" stroke-miterlimit="10"/>
<path d="M155.218 133.771C154.837 134.334 153.024 135.793 152.454 135.951C146.139 137.719 130.482 130.818 105.479 134.135C104.075 134.32 101.445 135.357 100.645 135.227C95.7107 129.177 83.5971 123.484 82.9138 121.053C82.7387 120.432 82.931 119.786 83.8341 119.601C87.9646 121.551 91.7621 123.656 96.5004 124.689C116.566 125.853 136.391 127.827 155.218 133.774V133.771Z" fill="#F7C7D9" stroke="#8D89A2" stroke-width="0.25" stroke-miterlimit="10"/>
<path d="M107.32 142.856C108.693 143.659 111.017 145.706 113.538 146.852C122.403 150.894 136.937 151.835 147.156 151.213C149.24 151.086 152.591 149.266 153.834 150.485C148.721 152.957 155.461 156.618 154.294 158.846C152.461 159.138 150.648 159.33 148.766 159.21C139.465 158.609 119.079 155.515 111.694 151.213C107.632 148.847 95.9648 138.454 94.4231 134.495C98.7391 137.273 102.842 140.229 107.32 142.856Z" fill="#F7C7D9" stroke="#8D89A2" stroke-width="0.25" stroke-miterlimit="10"/>
<path d="M152.454 135.951C155.877 140.858 157.044 143.742 156.138 149.579C156.107 149.771 154.97 150.255 154.758 150.849C154.555 150.812 153.868 150.516 153.837 150.486C152.594 149.267 149.247 151.086 147.159 151.213C136.941 151.835 122.407 150.894 113.541 146.853C111.021 145.706 108.696 143.66 107.323 142.856C107.261 142.636 107.958 142.121 108.013 142.128C108.916 142.248 122.623 152.604 121.14 146.489C125.727 147.862 146.108 151.172 149.923 150.125C150.277 150.029 150.157 149.651 150.153 149.397C151.705 149.589 152.464 149.648 154.067 149.397C155.293 148.717 154.558 147.481 154.758 146.489C155.612 142.255 153.916 138.369 148.539 136.676C135.99 136.803 125.061 134.526 112.387 135.584C110.324 135.756 108.418 135.889 106.399 136.312C106.32 135.838 105.215 135.107 105.479 134.131C130.482 130.818 146.139 137.716 152.454 135.948V135.951Z" fill="#F7C7D9" stroke="#8D89A2" stroke-width="0.25" stroke-miterlimit="10"/>
<path d="M154.757 150.853C154.716 150.963 154.788 151.1 154.757 151.217L154.297 152.127C154.661 152.518 156.114 153.411 156.141 153.579C156.354 154.96 156.862 180.008 156.601 181.384C155.65 181.309 156.529 179.983 155.911 179.568C155.846 179.523 154.83 180.279 154.761 180.296C149.456 181.638 144.656 183.846 135.19 182.84C124.381 181.693 114.461 171.018 115.155 162.668C114.935 162.095 110.417 160.186 104.562 154.129C103.755 153.294 102.725 152.608 102.258 151.585C108.569 156.206 114.554 159.461 123.443 159.945C123.217 160.683 122.843 161.411 122.523 162.126C120.237 167.221 120.896 170.675 125.287 175.029C134.716 184.378 152.048 179.602 154.301 176.663C157.346 172.694 154.054 173.552 153.841 173.391C152.227 172.196 153.35 172.337 153.841 169.755C153.92 169.333 156.577 167.626 151.997 161.758C151.66 160.34 153.741 159.918 154.301 158.85C155.468 156.625 148.728 152.961 153.841 150.489C153.872 150.52 154.562 150.815 154.761 150.853H154.757Z" fill="#F7C7D9" stroke="#8D89A2" stroke-width="0.25" stroke-miterlimit="10"/>
<path d="M154.298 158.85C153.738 159.917 151.657 160.336 151.994 161.758C142.629 161.577 133.265 161.395 123.9 161.212C132.464 166.606 142.383 171.749 153.834 169.751C153.343 172.333 152.22 172.189 153.834 173.387C142.211 176.361 131.681 169.961 124.36 163.574C123.989 163.251 124.113 162.469 122.516 162.122C122.836 161.408 123.21 160.68 123.437 159.941C124.954 160.024 126.517 159.911 128.041 159.941C134.778 160.079 141.998 159.385 148.766 159.214C150.644 159.334 152.457 159.141 154.294 158.85H154.298Z" fill="#F7C7D9" stroke="#8D89A2" stroke-width="0.25" stroke-miterlimit="10"/>
<path d="M105.019 121.414L102.715 119.598C113.878 119.292 125.703 115.323 146.466 121.596C131.389 119.584 119.746 120.504 105.016 121.414H105.019Z" fill="#F7C7D9" stroke="#8D89A2" stroke-width="0.25" stroke-miterlimit="10"/>
<path d="M103.635 111.964C105.359 114.443 99.2575 114.625 97.4171 114.145C95.2745 113.585 90.9723 109.241 89.3585 107.604C95.3466 103.449 96.4076 110.179 101.101 112.692C101.953 112.857 102.852 112.201 103.635 111.964Z" fill="#F7C7D9" stroke="#8D89A2" stroke-width="0.25" stroke-miterlimit="10"/>
<path d="M112.387 135.589C112.219 136.468 113.376 136.777 114.231 137.041C115.649 139.469 127.684 144.609 130.582 145.402C137.243 147.225 143.767 146.284 145.319 148.31C151.231 148.42 149.878 149.368 150.153 149.402C150.153 149.656 150.277 150.03 149.923 150.13C146.108 151.177 125.723 147.867 121.14 146.494C114.877 144.619 109.84 141.134 105.482 137.227C105.222 136.516 106.489 136.828 106.403 136.317C108.422 135.898 110.327 135.764 112.391 135.589H112.387Z" fill="#F7C7D9" stroke="#8D89A2" stroke-width="0.25" stroke-miterlimit="10"/>
<path d="M154.757 146.493C140.567 145.803 127.313 141.113 114.231 137.044C113.38 136.78 112.219 136.471 112.387 135.592C125.061 134.531 135.99 136.811 148.539 136.684C153.916 138.377 155.612 142.263 154.757 146.497V146.493Z" fill="#F7C7D9" stroke="#8D89A2" stroke-width="0.25" stroke-miterlimit="10"/>
<path d="M154.757 146.494C154.558 147.482 155.293 148.722 154.067 149.402C152.464 149.652 151.705 149.594 150.153 149.402C149.878 149.367 151.231 148.423 145.319 148.31C143.767 146.284 137.24 147.225 130.582 145.402C127.684 144.609 115.653 139.472 114.231 137.041C127.313 141.11 140.567 145.803 154.757 146.49V146.494Z" fill="#F7C7D9" stroke="#8D89A2" stroke-width="0.25" stroke-miterlimit="10"/>
<path d="M151.993 161.754C156.574 167.622 153.916 169.329 153.837 169.751C142.386 171.75 132.467 166.606 123.904 161.212C133.268 161.393 142.632 161.575 151.997 161.758L151.993 161.754Z" fill="#F7C7D9" stroke="#8D89A2" stroke-width="0.25" stroke-miterlimit="10"/>
<path d="M124.36 163.573C122.063 163.804 127.753 170.32 128.965 171.388C135.894 177.476 144.718 177.246 154.294 176.659C152.042 179.598 134.706 184.374 125.281 175.024C120.892 170.671 120.23 167.216 122.517 162.121C124.113 162.468 123.986 163.251 124.36 163.573Z" fill="#F7C7D9" stroke="#8D89A2" stroke-width="0.25" stroke-miterlimit="10"/>
<path d="M153.834 173.387C154.047 173.545 157.34 172.687 154.294 176.66C144.718 177.247 135.894 177.48 128.965 171.389C127.749 170.321 122.06 163.808 124.36 163.574C131.681 169.961 142.215 176.361 153.834 173.387Z" fill="#F7C7D9" stroke="#8D89A2" stroke-width="0.25" stroke-miterlimit="10"/>
<path d="M148.186 70.7471C143.688 75.6262 136.927 81.1988 128.288 81.6967C115.292 82.4418 103.594 71.372 103.625 71.3239C103.642 71.2998 107.316 73.8922 113.922 76.5944C119.423 78.8434 122.383 80.0554 126.424 80.1584C128.711 80.2168 133.669 79.9799 139.482 76.5085" fill="#374595"/>
<path d="M103.804 71.4002C111.165 62.188 117.758 59.5922 122.891 59.3004C135.18 58.5965 148.179 70.5591 148.2 70.5316C148.248 70.4629 146.816 69.6698 146.816 69.6698C136.004 63.6919 130.596 60.7013 124.858 60.7219C122.486 60.7322 117.778 61.1991 112.085 65.134" fill="#374595"/>
<path d="M109.49 66.7273C108.59 67.1222 107.347 67.4861 106.187 67.0878C104.439 66.487 103.622 64.4165 103.629 64.4131C103.632 64.4131 103.948 64.9453 104.638 65.6526C105.211 66.2397 105.524 66.5591 106.042 66.7891C106.338 66.9196 107 67.1531 107.982 67.0123" fill="#2A2863"/>
<path d="M111.982 64.5501C111.224 65.0926 110.145 65.6659 109.026 65.4805C107.34 65.199 106.276 63.314 106.279 63.3105C106.279 63.3105 106.65 63.7775 107.388 64.3475C108.003 64.8213 108.333 65.0788 108.844 65.2128C109.133 65.2883 109.775 65.4016 110.647 65.0925" fill="#2A2863"/>
<path d="M114.99 62.2705C114.146 62.7546 112.958 63.2422 111.756 62.964C109.95 62.5451 108.882 60.564 108.889 60.5605C108.889 60.5605 109.27 61.0584 110.042 61.6936C110.685 62.2224 111.031 62.504 111.577 62.6825C111.886 62.7821 112.573 62.9503 113.531 62.71" fill="#2A2863"/>
<path d="M106.736 68.8074C105.836 69.2022 104.593 69.5662 103.433 69.1679C101.685 68.567 100.868 66.4966 100.875 66.4932C100.878 66.4932 101.194 67.0254 101.884 67.7327C102.458 68.3198 102.77 68.6391 103.289 68.8692C103.584 68.9996 104.247 69.2331 105.229 69.0923" fill="#2A2863"/>
<path d="M131.588 79.5511C131.588 79.5511 131.437 69.4495 134.246 63.0391C134.246 63.0391 148.447 74.593 131.588 79.5511Z" fill="#7987BB"/>
<path d="M134.163 63.0449C134.163 63.0449 123.196 69.2769 131.715 79.6359C131.715 79.6359 134.235 70.0803 134.163 63.0449Z" fill="#374595"/>
<path d="M221.829 70.9941C217.331 75.8732 210.57 81.4459 201.931 81.9438C188.935 82.6888 177.237 71.619 177.268 71.571C177.285 71.5469 180.959 74.1393 187.565 76.8415C193.066 79.0905 196.026 80.3025 200.067 80.4055C202.354 80.4639 207.312 80.227 213.125 76.7557" fill="#374595"/>
<path d="M177.447 71.6473C184.808 62.4351 191.401 59.8393 196.534 59.5475C208.822 58.8436 221.822 70.8061 221.842 70.7786C221.891 70.7099 220.459 69.9168 220.459 69.9168C209.646 63.939 204.239 60.9483 198.501 60.9689C196.129 60.9792 191.421 61.4462 185.728 65.3811" fill="#374595"/>
<path d="M183.133 66.9744C182.233 67.3693 180.99 67.7332 179.829 67.3349C178.082 66.734 177.265 64.6636 177.271 64.6602C177.275 64.6602 177.591 65.1924 178.281 65.8997C178.854 66.4868 179.167 66.8061 179.685 67.0362C179.98 67.1667 180.643 67.4002 181.625 67.2594" fill="#374595"/>
<path d="M185.625 64.7971C184.866 65.3396 183.788 65.9131 182.669 65.7276C180.983 65.4461 179.919 63.5611 179.922 63.5576C179.922 63.5576 180.293 64.0246 181.031 64.5946C181.646 65.0684 181.975 65.3259 182.487 65.4598C182.775 65.5354 183.417 65.6487 184.29 65.3397" fill="#374595"/>
<path d="M188.633 62.5175C187.788 63.0017 186.6 63.4892 185.399 63.2111C183.593 62.7922 182.525 60.8111 182.532 60.8076C182.532 60.8076 182.913 61.3055 183.685 61.9407C184.327 62.4695 184.674 62.751 185.22 62.9296C185.529 63.0291 186.216 63.1974 187.174 62.957" fill="#374595"/>
<path d="M180.379 69.0544C179.479 69.4493 178.236 69.8133 177.076 69.415C175.328 68.8141 174.511 66.7437 174.518 66.7402C174.521 66.7402 174.837 67.2724 175.527 67.9797C176.1 68.5669 176.413 68.8862 176.931 69.1163C177.227 69.2467 177.889 69.4802 178.871 69.3394" fill="#374595"/>
<path d="M205.231 79.7981C205.231 79.7981 205.08 69.6966 207.888 63.2861C207.888 63.2861 222.09 74.8401 205.231 79.7981Z" fill="#7987BB"/>
<path d="M207.806 63.292C207.806 63.292 196.839 69.5239 205.358 79.883C205.358 79.883 207.878 70.3274 207.806 63.292Z" fill="#374595"/>
<path d="M133.881 74.2541C134.869 74.2541 135.67 73.0874 135.67 71.6481C135.67 70.2088 134.869 69.042 133.881 69.042C132.893 69.042 132.093 70.2088 132.093 71.6481C132.093 73.0874 132.893 74.2541 133.881 74.2541Z" fill="#374595"/>
<path d="M207.786 74.6242C208.774 74.6242 209.574 73.4575 209.574 72.0182C209.574 70.5789 208.774 69.4121 207.786 69.4121C206.798 69.4121 205.997 70.5789 205.997 72.0182C205.997 73.4575 206.798 74.6242 207.786 74.6242Z" fill="#374595"/>
<path d="M170.387 88.8902C168.385 93.6216 164.33 96.5367 160.753 96.1281C157.388 95.747 154.593 92.4474 154.095 91.8602C152.577 90.0714 152.577 89.7726 152.643 89.6593C152.797 89.3881 153.278 89.5254 155.255 89.6696C157.443 89.8276 158.734 89.7967 159.451 89.7658C159.602 89.7589 160.025 89.7383 160.577 89.6868C162.48 89.5185 163.396 89.2404 164.811 89.0276C165.553 88.9142 166.627 88.7872 167.966 88.7666" fill="#374595"/>
<path d="M152.642 89.6627C157.024 89.752 160.031 89.4739 162.02 89.1855C163.932 88.9073 165.515 88.5297 167.97 88.7666C169.563 88.9211 170.174 89.2026 170.39 88.8902C171.077 87.8807 166.432 82.5278 163.901 83.393C162.84 83.7536 162.596 85.0549 161.501 85.0617C160.461 85.0686 160.124 83.9046 159.125 83.6299C158.229 83.3862 156.807 83.86 154.469 86.7785" fill="#374595"/>
<path d="M260.253 78.2568L358.935 17.1022" stroke="#374595" stroke-width="3" stroke-miterlimit="10"/>
<path d="M356.399 17.3205C356.273 18.2758 356.995 18.8751 357.53 19.0097C358.618 19.3595 359.903 18.3165 360.269 18.067C365.052 14.5639 369.296 16.2396 370.574 13.2587C371.297 11.5808 370.666 9.10635 369.614 8.15833C367.921 6.59324 364.735 9.32149 358.282 14.7958C357.649 15.3575 356.507 16.2847 356.301 17.2578L356.399 17.3205Z" fill="#374595"/>
<path d="M365.85 10.173L368.659 9.55174C368.659 9.55174 367.679 8.16625 365.85 10.173Z" fill="#E4D1E4"/>
</svg>
