<svg width="402" height="379" viewBox="0 0 402 379" fill="none" xmlns="http://www.w3.org/2000/svg">
<rect width="402" height="379" fill="#F7C7D9"/>
<path d="M228.115 46.613L225.444 42.6088C225.444 42.6088 212.735 25.586 190.944 34.6668C190.944 34.6668 180.052 37.6171 169.833 49.1937C168.736 50.4234 167.113 52.2529 165.15 54.4701C147.412 74.5095 145.65 77.0114 141.688 80.5129C136.769 84.8564 129.063 90.2055 117.171 93.9069C113.706 94.7307 109.89 95.906 105.879 97.5961C94.5331 102.364 86.4943 109.161 81.3693 114.419C79.3036 116.727 77.2016 119.283 75.1237 122.112C70.0654 128.994 66.4427 135.7 63.8318 141.576L60.8817 162.004C60.8817 162.004 53.8423 185.381 40 183.339C40 183.339 49.0809 192.19 60.8817 180.844C60.8817 180.844 64.062 196.733 61.1057 203.088C61.1057 203.088 59.2884 214.435 46.1246 211.03C46.1246 211.03 48.3963 216.706 58.3797 216.252C58.3797 216.252 79.7155 213.071 88.7963 198.321C88.7963 198.321 94.9026 188.834 97.1077 175.307C98.0042 171.539 99.1372 167.528 100.567 163.33C103.305 155.304 106.54 148.373 109.72 142.57C114.088 136.197 121.436 127.116 132.819 118.98C141.815 112.553 150.423 108.791 156.887 106.55C156.887 106.55 163.969 104.817 170.887 96.4815C172.868 94.5308 174.97 92.1804 177.023 89.3817C181.343 83.4873 183.857 77.7202 185.353 73.2434C186.625 70.1418 188.897 65.7317 192.95 61.4548C199.983 54.0339 208.185 51.4593 211.947 50.5385L212.323 52.0227L228.103 46.613H228.115Z" fill="#364B98"/>
<path d="M212.341 52.0227C212.341 52.0227 190.127 61.5821 190.127 90.248C190.127 90.248 192.659 94.9429 196.615 94.9974C196.615 94.9974 210.027 95.0519 213.874 92.3622L215.412 90.8235L219.096 92.4167C219.096 92.4167 226.759 90.145 230.169 97.3297C230.266 97.5356 230.357 97.7477 230.448 97.9658C233.695 105.92 242.334 109.252 242.334 109.252L251.481 111.814C251.481 111.814 257.121 112.068 259.605 110.191C259.605 110.191 265.675 115.406 270.036 114.122C270.036 114.122 276.621 110.106 278.414 103.606C278.414 103.606 281.492 94.543 280.638 85.4804C280.638 85.4804 278.329 71.8018 270.806 64.7928C270.806 64.7928 264.736 54.7912 248.064 50.2599C248.064 50.2599 244.436 46.916 228.122 46.6191" fill="#364B98"/>
<path d="M190.509 89.5566C189.83 90.0473 188.97 90.5804 187.934 91.0529C186.432 91.7375 185.05 92.0767 183.99 92.2402C180.531 92.01 177.072 91.7738 173.613 91.5436" stroke="#364B98" stroke-miterlimit="10"/>
<path d="M209.869 124.136L220.707 123.319L239.51 121.895L255.715 119.787C261.513 121.101 268.625 113.505 268.625 113.505" fill="#F0C9D8"/>
<path d="M209.869 124.136L220.707 123.319L239.51 121.895L255.715 119.787C261.513 121.101 268.625 113.505 268.625 113.505" stroke="#364B98" stroke-miterlimit="10"/>
<path d="M207.67 180.692C208.022 189.863 192.489 208.594 192.489 208.594L181.573 228.367L174.158 246.286L165.919 263.382C163.036 279.241 158.093 281.095 158.093 281.095C160.152 275.122 152.119 272.65 152.119 272.65C129.257 271.414 110.714 278.623 110.714 278.623C103.505 277.799 73.9123 295.719 73.9123 295.719C67.7999 292.629 66.6307 273.062 66.6307 273.062C64.1591 268.943 70.338 243.609 70.338 243.609L77.547 222.806L81.7693 205.329C81.7693 205.329 84.3984 205.577 90.2927 195.679C90.2927 195.679 95.1693 187.67 95.4722 182.636C95.4722 182.636 101.627 151.202 109.127 143.672C109.127 143.672 124.229 119.392 134.764 117.623C134.764 117.623 148.679 108.566 151.52 108.585C151.52 108.585 160.91 106.622 163.527 103.254C163.527 103.254 170.36 98.8252 172.674 94.6514C172.674 94.6514 190.708 113.007 197.632 114.321C197.632 114.321 197.687 114.491 197.778 114.788" fill="#F7C7D9"/>
<path d="M207.67 180.692C208.022 189.863 192.489 208.594 192.489 208.594L181.573 228.367L174.158 246.286L165.919 263.382C163.036 279.241 158.093 281.095 158.093 281.095C160.152 275.122 152.119 272.65 152.119 272.65C129.257 271.414 110.714 278.623 110.714 278.623C103.505 277.799 73.9123 295.719 73.9123 295.719C67.7999 292.629 66.6307 273.062 66.6307 273.062C64.1591 268.943 70.338 243.609 70.338 243.609L77.547 222.806L81.7693 205.329C81.7693 205.329 84.3984 205.577 90.2927 195.679C90.2927 195.679 95.1693 187.67 95.4722 182.636C95.4722 182.636 101.627 151.202 109.127 143.672C109.127 143.672 124.229 119.392 134.764 117.623C134.764 117.623 148.679 108.566 151.52 108.585C151.52 108.585 160.91 106.622 163.527 103.254C163.527 103.254 170.36 98.8252 172.674 94.6514C172.674 94.6514 190.708 113.007 197.632 114.321C197.632 114.321 197.687 114.491 197.778 114.788" stroke="#364B98" stroke-miterlimit="10"/>
<path d="M83.7505 290.049C83.7505 290.049 103.578 341.65 114.028 342.286C114.028 342.286 145.801 352.948 176.721 342.286C176.721 342.286 189.939 333.545 202.951 309.023C202.951 309.023 220.592 279.593 224.887 262.965C229.182 246.336 235.791 233.753 235.791 233.753L245.599 206.457C245.599 206.457 252.85 239.296 296.564 266.163C296.564 266.163 298.127 267.871 296.564 270.216C296.564 270.216 296.001 271.324 297.261 271.973L304.833 278.285L305.287 282.968L310.885 291.945C311.63 295.199 312.248 298.948 312.508 303.128C313.047 311.688 311.915 318.982 310.588 324.373C311.969 327.13 313.344 329.892 314.725 332.648C318.99 334.266 323.255 335.883 327.52 337.501C331.433 335.623 335.34 333.745 339.254 331.867C346.523 332.346 353.884 332.885 361.335 333.49C367.272 333.975 373.142 334.49 378.951 335.035C385.59 331.734 392.987 327.493 392.297 324.925C391.745 322.871 386.366 323.18 378.369 322.289C367.599 321.09 354.659 319.648 346.438 312.712C342.071 309.023 341.586 305.939 334.862 287.965C330.312 275.807 326.338 266.018 323.685 259.627C319.475 246.845 315.271 234.062 311.06 221.28L288.434 185.351C283.927 178.972 279.414 172.587 274.907 166.208L266.468 167.183L245.011 169.728L216.055 178.645L208.143 181.098L207.695 182.667C207.695 182.667 202.667 198.739 192.508 208.595L181.591 228.368L165.938 263.383C165.938 263.383 161.667 281.926 158.111 281.096C158.111 281.096 160.801 271.985 148.43 272.524L133.316 273.372L116.348 276.813L110.738 278.624L102.463 280.738L83.7685 290.043L83.7505 290.049Z" fill="#F0C5D8" stroke="#354A98" stroke-miterlimit="10"/>
<path d="M294.383 160.205C294.383 160.205 302.41 174.726 288.422 185.351Z" fill="#F0C9D8"/>
<path d="M294.383 160.205C294.383 160.205 302.41 174.726 288.422 185.351" stroke="#354A98" stroke-miterlimit="10"/>
<path d="M221.216 185.012L214.843 192.657C214.843 192.657 213.728 196.679 216.454 195.625L219.429 193.832L219.98 192.778" fill="#F0C9D8"/>
<path d="M221.216 185.012L214.843 192.657C214.843 192.657 213.728 196.679 216.454 195.625L219.429 193.832L219.98 192.778" stroke="#374595" stroke-miterlimit="10"/>
<path d="M231.108 174.337C231.108 174.337 228.51 176.088 226.989 177.251C225.759 178.196 224.105 179.644 222.343 181.776C222.343 181.776 218.811 191.359 218.72 198.175C218.72 198.175 220.574 197.799 221.01 198.411C221.01 198.411 221.919 198.98 221.791 199.774L225.032 188.67C225.032 188.67 225.572 183.448 234.131 180.286C234.131 180.286 227.771 186.253 227.286 188.276L224.742 201.137C225.008 201.034 225.384 200.931 225.832 200.907C226.662 200.864 227.31 201.113 227.643 201.27C227.801 201.416 227.958 201.561 228.116 201.706L230.309 192.492C233.635 188.506 236.954 184.52 240.28 180.534C240.11 181.685 239.801 183 239.244 184.393C237.439 188.936 234.119 191.59 232.326 192.801C231.696 195.963 231.066 199.12 230.436 202.282C230.436 202.282 232.72 201.27 233.289 202.282L236.627 193.898L245.714 184.569L245.102 190.954L238.432 199.071C238.432 199.071 241.152 199.156 240.759 200.87L248.525 193.365C248.525 193.365 252.038 190.378 253.662 184.853L263.888 168.261C253.765 169.333 245.974 170.539 242.037 171.368C238.947 172.023 236.791 172.616 236.791 172.616C234.895 173.186 233.005 173.761 231.108 174.331V174.337Z" fill="#F0C9D8" stroke="#354A98" stroke-miterlimit="10"/>
<path d="M218.199 198.811C218.363 198.684 219.114 198.127 220.137 198.254C221.616 198.436 222.252 199.853 222.276 199.92C221.931 200.695 221.531 201.271 221.228 201.646C221.07 201.84 220.44 202.61 219.398 203.167C219.199 203.276 219.132 203.294 219.065 203.282C218.417 203.179 218.241 200.895 218.199 198.818V198.811Z" fill="#344899"/>
<path d="M224.069 201.876C224.196 201.785 225.505 200.846 226.995 201.374C227.819 201.664 228.279 202.258 228.461 202.512C228.261 203.118 227.819 204.19 226.813 205.142C226.304 205.626 225.789 205.953 225.371 206.165C225.25 206.256 225.141 206.293 225.038 206.28C224.511 206.202 224.184 204.73 224.075 201.876H224.069Z" fill="#344899"/>
<path d="M229.739 203.155C230.654 202.107 231.932 201.853 232.683 202.343C233.156 202.652 233.319 203.191 233.374 203.47C232.877 204.3 232.52 204.954 232.284 205.409C232.284 205.409 231.944 206.238 230.927 207.123C230.799 207.232 230.721 207.238 230.654 207.232C230.085 207.171 229.848 205.045 229.739 203.155Z" fill="#344899"/>
<path d="M237.366 199.562C238.305 198.956 239.529 199.211 240.086 200.041C240.565 200.749 240.486 201.761 239.856 202.458C239.511 202.724 239.044 203.027 238.456 203.294C237.881 203.554 237.36 203.706 236.936 203.791C236.815 203.827 236.718 203.827 236.639 203.791C236.227 203.56 236.469 202.155 237.36 199.568L237.366 199.562Z" fill="#364B98"/>
<path d="M190.127 90.2785C190.436 90.8964 191.623 93.053 194.289 94.2222C197.106 95.458 199.644 94.725 200.268 94.5251C200.268 94.5251 211.729 95.5004 215.406 90.8722L218.944 92.1989C218.944 92.1989 226.595 89.9272 229.43 96.6514C229.43 96.6514 232.12 103.097 237.857 106.708C237.857 106.708 241.255 109.682 246.144 110.033C246.144 110.033 253.014 113.716 259.387 110.033C259.387 110.033 262.997 113.359 267.104 113.929C267.104 113.929 260.307 121.301 255.915 118.817C255.915 118.817 251.33 119.944 239.25 121.149L220.707 122.706L207.616 115.764C207.616 115.764 204.454 112.002 198.099 114.565C198.099 114.565 198.196 112.596 194.058 106.09L185.147 92.7926C185.517 92.7199 185.898 92.6169 186.304 92.4897C187.994 91.9384 189.26 91.0358 190.121 90.2725L190.127 90.2785Z" fill="#F0C5D8" stroke="#364B98" stroke-miterlimit="10"/>
<path d="M220.713 123.318L207.24 116.363C206.865 115.994 204.199 113.468 200.334 113.892C197.693 114.182 195.978 115.685 195.415 116.23C192.301 119.229 187.655 124.463 184.184 132.174C181.161 138.899 180.173 144.975 179.834 149.039" stroke="#364B98" stroke-miterlimit="10"/>
<path d="M294.383 160.205L275.446 165.724L288.61 185.206" fill="#F0C9D8"/>
<path d="M294.383 160.205L275.446 165.724L288.61 185.206" stroke="#354A98" stroke-miterlimit="10"/>
<path d="M143.154 181.51C150.563 181.982 157.971 182.449 165.374 182.921L201.352 180.807C205.938 182.921 246.501 169.164 246.501 169.164L278.699 164.929L295.885 159.641L306.117 152.941C312.466 147.295 308.231 132.132 308.231 132.132L278.699 105.187C278.699 105.187 276.088 110.36 273.417 112.189C273.417 112.189 271.66 114.158 270.139 113.765C266.989 115.382 263.833 117.005 260.683 118.623C260.683 118.623 258.575 119.483 257.303 119.204C256.879 119.114 256.545 118.896 256.418 118.471L252.335 119.659L248.731 120.095L239.044 121.482L226.619 122.149L214.413 123.342L212.771 123.469L211.402 123.651L211.384 123.039C214.37 122.803 217.357 122.567 220.35 122.336C216.297 120.246 212.244 118.162 208.197 116.073C203.121 111.79 197.79 114.794 197.79 114.794L196.481 115.703L192.907 118.823L190.49 121.579L186.498 126.553" fill="#F7C7D9"/>
<path d="M143.154 181.51C150.563 181.982 157.971 182.449 165.374 182.921L201.352 180.807C205.938 182.921 246.501 169.164 246.501 169.164L278.699 164.929L295.885 159.641L306.117 152.941C312.466 147.295 308.231 132.132 308.231 132.132L278.699 105.187C278.699 105.187 276.088 110.36 273.417 112.189C273.417 112.189 271.66 114.158 270.139 113.765C266.989 115.382 263.833 117.005 260.683 118.623C260.683 118.623 258.575 119.483 257.303 119.204C256.879 119.114 256.545 118.896 256.418 118.471L252.335 119.659L248.731 120.095L239.044 121.482L226.619 122.149L214.413 123.342L212.771 123.469L211.402 123.651L211.384 123.039C214.37 122.803 217.357 122.567 220.35 122.336C216.297 120.246 212.244 118.162 208.197 116.073C203.121 111.79 197.79 114.794 197.79 114.794L196.481 115.703L192.907 118.823L190.49 121.579L186.498 126.553" stroke="#364B98" stroke-miterlimit="10"/>
<path d="M173.025 94.2825L174.8 92.2471L184.36 92.659L193.295 105.75L197.433 113.692L189.267 109.167L182.252 103.727L173.025 94.2825Z" fill="#F0C5D8" stroke="#364B98" stroke-miterlimit="10"/>
</svg>
