<svg width="46" height="44" viewBox="0 0 46 44" fill="none" xmlns="http://www.w3.org/2000/svg">
<path d="M12.6693 19.9999L21.2047 2C22.9025 2 24.5308 2.63214 25.7313 3.75735C26.9319 4.88256 27.6063 6.40867 27.6063 7.99996V15.9999H39.684C40.3026 15.9933 40.9153 16.1129 41.4797 16.3503C42.0442 16.5878 42.5468 16.9374 42.9527 17.3749C43.3587 17.8125 43.6583 18.3275 43.8308 18.8844C44.0033 19.4413 44.0445 20.0266 43.9517 20.5999L41.0069 38.5998C40.8526 39.5536 40.3357 40.423 39.5515 41.0478C38.7672 41.6726 37.7684 42.0107 36.7392 41.9997H12.6693M12.6693 19.9999V41.9997M12.6693 19.9999H6.26772C5.13585 19.9999 4.05034 20.4213 3.24999 21.1715C2.44963 21.9216 2 22.939 2 23.9999V37.9998C2 39.0606 2.44963 40.078 3.24999 40.8282C4.05034 41.5783 5.13585 41.9997 6.26772 41.9997H12.6693" stroke="#FC4D5C" stroke-width="4" stroke-linecap="round" stroke-linejoin="round"/>
</svg>
